  0
SECTION
  2
HEADER
  9
$ACADVER
  1
AC1009
  9
$DWGCODEPAGE
  3
ANSI_1252
  9
$INSBASE
 10
0.0
 20
0.0
 30
0.0
  9
$EXTMIN
 10
1e+20
 20
1e+20
 30
1e+20
  9
$EXTMAX
 10
-1e+20
 20
-1e+20
 30
-1e+20
  9
$LIMMIN
 10
0.0
 20
0.0
  9
$LIMMAX
 10
420.0
 20
297.0
  9
$ORTHOMODE
 70
0
  9
$REGENMODE
 70
1
  9
$FILLMODE
 70
1
  9
$DRAGMODE
 70
2
  9
$QTEXTMODE
 70
0
  9
$MIRRTEXT
 70
1
  9
$OSMODE
 70
20583
  9
$LTSCALE
 40
1.0
  9
$ATTMODE
 70
1
  9
$TEXTSIZE
 40
2.5
  9
$TRACEWID
 40
1.0
  9
$TEXTSTYLE
  7
Standard
  9
$CLAYER
  8
0
  9
$CELTYPE
  6
ByLayer
  9
$CECOLOR
 62
256
  9
$DIMSCALE
 40
1.0
  9
$DIMASZ
 40
2.5
  9
$DIMEXO
 40
0.625
  9
$DIMDLI
 40
3.75
  9
$DIMRND
 40
0.0
  9
$DIMDLE
 40
0.0
  9
$DIMEXE
 40
1.25
  9
$DIMTP
 40
0.0
  9
$DIMTM
 40
0.0
  9
$DIMTXT
 40
2.5
  9
$DIMCEN
 40
2.5
  9
$DIMTSZ
 40
0.0
  9
$DIMTOL
 70
0
  9
$DIMLIM
 70
0
  9
$DIMTIH
 70
0
  9
$DIMTOH
 70
0
  9
$DIMSE1
 70
0
  9
$DIMSE2
 70
0
  9
$DIMTAD
 70
1
  9
$DIMZIN
 70
8
  9
$DIMBLK
  1

  9
$DIMASO
 70
1
  9
$DIMSHO
 70
1
  9
$DIMPOST
  1

  9
$DIMAPOST
  1

  9
$DIMALT
 70
0
  9
$DIMALTD
 70
3
  9
$DIMALTF
 40
0.03937007874
  9
$DIMLFAC
 40
1.0
  9
$DIMTOFL
 70
1
  9
$DIMTVP
 40
0.0
  9
$DIMTIX
 70
0
  9
$DIMSOXD
 70
0
  9
$DIMSAH
 70
0
  9
$DIMBLK1
  1

  9
$DIMBLK2
  1

  9
$DIMSTYLE
  2
ISO-25
  9
$DIMCLRD
 70
0
  9
$DIMCLRE
 70
0
  9
$DIMCLRT
 70
0
  9
$DIMTFAC
 40
1.0
  9
$DIMGAP
 40
0.625
  9
$COORDS
 70
1
  9
$ATTDIA
 70
0
  9
$ATTREQ
 70
1
  9
$HANDLING
 70
1
  9
$LUNITS
 70
2
  9
$LUPREC
 70
4
  9
$SKETCHINC
 40
1.0
  9
$FILLETRAD
 40
10.0
  9
$AUNITS
 70
0
  9
$AUPREC
 70
2
  9
$MENU
  1
.
  9
$ELEVATION
 40
0.0
  9
$PELEVATION
 40
0.0
  9
$THICKNESS
 40
0.0
  9
$LIMCHECK
 70
0
  9
$CHAMFERA
 40
0.0
  9
$CHAMFERB
 40
0.0
  9
$SKPOLY
 70
0
  9
$TDCREATE
 40
2461064.093587963
  9
$TDUPDATE
 40
2461064.093587963
  9
$TDINDWG
 40
0.0
  9
$TDUSRTIMER
 40
0.0
  9
$USRTIMER
 70
1
  9
$ANGBASE
 50
0.0
  9
$ANGDIR
 70
0
  9
$PDMODE
 70
0
  9
$PDSIZE
 40
0.0
  9
$PLINEWID
 40
0.0
  9
$SPLFRAME
 70
0
  9
$SPLINETYPE
 70
6
  9
$SPLINESEGS
 70
8
  9
$HANDSEED
  5
489
  9
$SURFTAB1
 70
6
  9
$SURFTAB2
 70
6
  9
$SURFTYPE
 70
6
  9
$SURFU
 70
6
  9
$SURFV
 70
6
  9
$UCSNAME
  2

  9
$UCSORG
 10
0.0
 20
0.0
 30
0.0
  9
$UCSXDIR
 10
1.0
 20
0.0
 30
0.0
  9
$UCSYDIR
 10
0.0
 20
1.0
 30
0.0
  9
$PUCSNAME
  2

  9
$PUCSORG
 10
0.0
 20
0.0
 30
0.0
  9
$PUCSXDIR
 10
1.0
 20
0.0
 30
0.0
  9
$PUCSYDIR
 10
0.0
 20
1.0
 30
0.0
  9
$USERI1
 70
0
  9
$USERI2
 70
0
  9
$USERI3
 70
0
  9
$USERI4
 70
0
  9
$USERI5
 70
0
  9
$USERR1
 40
0.0
  9
$USERR2
 40
0.0
  9
$USERR3
 40
0.0
  9
$USERR4
 40
0.0
  9
$USERR5
 40
0.0
  9
$WORLDVIEW
 70
1
  9
$SHADEDGE
 70
3
  9
$SHADEDIF
 70
70
  9
$TILEMODE
 70
1
  9
$MAXACTVP
 70
64
  9
$PLIMCHECK
 70
0
  9
$PEXTMIN
 10
1e+20
 20
1e+20
 30
1e+20
  9
$PEXTMAX
 10
-1e+20
 20
-1e+20
 30
-1e+20
  9
$PLIMMIN
 10
0.0
 20
0.0
  9
$PLIMMAX
 10
420.0
 20
297.0
  9
$UNITMODE
 70
0
  9
$VISRETAIN
 70
1
  9
$PLINEGEN
 70
0
  9
$PSLTSCALE
 70
1
  0
ENDSEC
  0
SECTION
  2
TABLES
  0
TABLE
  2
VPORT
 70
1
  0
VPORT
  5
23
  2
*Active
 70
0
 10
0.0
 20
0.0
 11
1.0
 21
1.0
 12
0.0
 22
0.0
 13
0.0
 23
0.0
 14
0.5
 24
0.5
 15
0.5
 25
0.5
 16
0.0
 26
0.0
 36
1.0
 17
0.0
 27
0.0
 37
0.0
 40
1000.0
 41
1.34
 42
50.0
 43
0.0
 44
0.0
 50
0.0
 51
0.0
 71
0
 72
1000
 73
1
 74
3
 75
0
 76
0
 77
0
 78
0
  0
ENDTAB
  0
TABLE
  2
LTYPE
 70
3
  0
LTYPE
  5
24
  2
ByBlock
 70
0
  3

 72
65
 73
0
 40
0.0
  0
LTYPE
  5
25
  2
ByLayer
 70
0
  3

 72
65
 73
0
 40
0.0
  0
LTYPE
  5
26
  2
Continuous
 70
0
  3

 72
65
 73
0
 40
0.0
  0
ENDTAB
  0
TABLE
  2
LAYER
 70
2
  0
LAYER
  5
27
  2
0
 70
0
 62
7
  6
Continuous
  0
LAYER
  5
28
  2
Defpoints
 70
0
 62
7
  6
Continuous
  0
ENDTAB
  0
TABLE
  2
STYLE
 70
1
  0
STYLE
  5
29
  2
Standard
 70
0
 40
0.0
 41
1.0
 50
0.0
 71
0
 42
2.5
  3
txt
  4

  0
ENDTAB
  0
TABLE
  2
VIEW
 70
0
  0
ENDTAB
  0
TABLE
  2
UCS
 70
0
  0
ENDTAB
  0
TABLE
  2
APPID
 70
3
  0
APPID
  5
2A
  2
ACAD
 70
0
  0
APPID
  5
487
  2
HATCHBACKGROUNDCOLOR
 70
0
  0
APPID
  5
488
  2
EZDXF
 70
0
  0
ENDTAB
  0
TABLE
  2
DIMSTYLE
 70
1
  0
DIMSTYLE
105
2B
  2
Standard
 70
0
  3

  4

  5

  6

  7

 40
1.0
 41
2.5
 42
0.625
 43
3.75
 44
1.25
 45
0.0
 46
0.0
 47
0.0
 48
0.0
140
2.5
141
2.5
142
0.0
143
0.03937007874
144
1.0
145
0.0
146
1.0
147
0.625
 71
0
 72
0
 73
0
 74
0
 75
0
 76
0
 77
1
 78
8
170
0
171
3
172
1
173
0
174
0
175
0
176
0
177
0
178
0
  0
ENDTAB
  0
ENDSEC
  0
SECTION
  2
BLOCKS
  0
BLOCK
  5
18
  8
0
  2
$Model_Space
 70
0
 10
0.0
 20
0.0
 30
0.0
  3
$Model_Space
  1

1001
EZDXF
1000
CREATED_BY_EZDXF
1000
1.4.2 @ 2026-01-23T02:14:46.934863+00:00
1000
WRITTEN_BY_EZDXF
1000
1.4.2 @ 2026-01-23T02:14:46.955658+00:00
  0
ENDBLK
  5
19
  8
0
  0
BLOCK
  5
1C
  8
0
  2
$Paper_Space
 70
0
 10
0.0
 20
0.0
 30
0.0
  3
$Paper_Space
  1

  0
ENDBLK
  5
1D
  8
0
  0
ENDSEC
  0
SECTION
  2
ENTITIES
  0
POLYLINE
  5
2D
  8
0
 66
1
 10
0.0
 20
0.0
 30
0.0
 70
0
  0
VERTEX
  5
2F
  8
0
 10
1665.0
 20
153.0
 30
0.0
 70
0
  0
VERTEX
  5
30
  8
0
 10
1664.0
 20
154.0
 30
0.0
 70
0
  0
VERTEX
  5
31
  8
0
 10
1663.0
 20
154.0
 30
0.0
 70
0
  0
VERTEX
  5
32
  8
0
 10
1661.0
 20
156.0
 30
0.0
 70
0
  0
VERTEX
  5
33
  8
0
 10
1660.0
 20
156.0
 30
0.0
 70
0
  0
VERTEX
  5
34
  8
0
 10
1659.0
 20
157.0
 30
0.0
 70
0
  0
VERTEX
  5
35
  8
0
 10
1658.0
 20
157.0
 30
0.0
 70
0
  0
VERTEX
  5
36
  8
0
 10
1657.0
 20
158.0
 30
0.0
 70
0
  0
VERTEX
  5
37
  8
0
 10
1656.0
 20
158.0
 30
0.0
 70
0
  0
VERTEX
  5
38
  8
0
 10
1655.0
 20
159.0
 30
0.0
 70
0
  0
VERTEX
  5
39
  8
0
 10
1654.0
 20
159.0
 30
0.0
 70
0
  0
VERTEX
  5
3A
  8
0
 10
1652.0
 20
161.0
 30
0.0
 70
0
  0
VERTEX
  5
3B
  8
0
 10
1651.0
 20
161.0
 30
0.0
 70
0
  0
VERTEX
  5
3C
  8
0
 10
1650.0
 20
162.0
 30
0.0
 70
0
  0
VERTEX
  5
3D
  8
0
 10
1649.0
 20
162.0
 30
0.0
 70
0
  0
VERTEX
  5
3E
  8
0
 10
1648.0
 20
163.0
 30
0.0
 70
0
  0
VERTEX
  5
3F
  8
0
 10
1647.0
 20
163.0
 30
0.0
 70
0
  0
VERTEX
  5
40
  8
0
 10
1645.0
 20
165.0
 30
0.0
 70
0
  0
VERTEX
  5
41
  8
0
 10
1644.0
 20
165.0
 30
0.0
 70
0
  0
VERTEX
  5
42
  8
0
 10
1643.0
 20
166.0
 30
0.0
 70
0
  0
VERTEX
  5
43
  8
0
 10
1642.0
 20
166.0
 30
0.0
 70
0
  0
VERTEX
  5
44
  8
0
 10
1641.0
 20
167.0
 30
0.0
 70
0
  0
VERTEX
  5
45
  8
0
 10
1640.0
 20
167.0
 30
0.0
 70
0
  0
VERTEX
  5
46
  8
0
 10
1639.0
 20
168.0
 30
0.0
 70
0
  0
VERTEX
  5
47
  8
0
 10
1638.0
 20
168.0
 30
0.0
 70
0
  0
VERTEX
  5
48
  8
0
 10
1636.0
 20
170.0
 30
0.0
 70
0
  0
VERTEX
  5
49
  8
0
 10
1635.0
 20
170.0
 30
0.0
 70
0
  0
VERTEX
  5
4A
  8
0
 10
1634.0
 20
171.0
 30
0.0
 70
0
  0
VERTEX
  5
4B
  8
0
 10
1633.0
 20
171.0
 30
0.0
 70
0
  0
VERTEX
  5
4C
  8
0
 10
1632.0
 20
172.0
 30
0.0
 70
0
  0
VERTEX
  5
4D
  8
0
 10
1631.0
 20
172.0
 30
0.0
 70
0
  0
VERTEX
  5
4E
  8
0
 10
1629.0
 20
174.0
 30
0.0
 70
0
  0
VERTEX
  5
4F
  8
0
 10
1628.0
 20
174.0
 30
0.0
 70
0
  0
VERTEX
  5
50
  8
0
 10
1627.0
 20
175.0
 30
0.0
 70
0
  0
VERTEX
  5
51
  8
0
 10
1626.0
 20
175.0
 30
0.0
 70
0
  0
VERTEX
  5
52
  8
0
 10
1625.0
 20
176.0
 30
0.0
 70
0
  0
VERTEX
  5
53
  8
0
 10
1624.0
 20
176.0
 30
0.0
 70
0
  0
VERTEX
  5
54
  8
0
 10
1622.0
 20
178.0
 30
0.0
 70
0
  0
VERTEX
  5
55
  8
0
 10
1621.0
 20
178.0
 30
0.0
 70
0
  0
VERTEX
  5
56
  8
0
 10
1620.0
 20
179.0
 30
0.0
 70
0
  0
VERTEX
  5
57
  8
0
 10
1619.0
 20
179.0
 30
0.0
 70
0
  0
VERTEX
  5
58
  8
0
 10
1618.0
 20
180.0
 30
0.0
 70
0
  0
VERTEX
  5
59
  8
0
 10
1617.0
 20
180.0
 30
0.0
 70
0
  0
VERTEX
  5
5A
  8
0
 10
1615.0
 20
182.0
 30
0.0
 70
0
  0
VERTEX
  5
5B
  8
0
 10
1614.0
 20
182.0
 30
0.0
 70
0
  0
VERTEX
  5
5C
  8
0
 10
1613.0
 20
183.0
 30
0.0
 70
0
  0
VERTEX
  5
5D
  8
0
 10
1612.0
 20
183.0
 30
0.0
 70
0
  0
VERTEX
  5
5E
  8
0
 10
1611.0
 20
184.0
 30
0.0
 70
0
  0
VERTEX
  5
5F
  8
0
 10
1610.0
 20
184.0
 30
0.0
 70
0
  0
VERTEX
  5
60
  8
0
 10
1608.0
 20
186.0
 30
0.0
 70
0
  0
VERTEX
  5
61
  8
0
 10
1607.0
 20
186.0
 30
0.0
 70
0
  0
VERTEX
  5
62
  8
0
 10
1606.0
 20
187.0
 30
0.0
 70
0
  0
VERTEX
  5
63
  8
0
 10
1605.0
 20
187.0
 30
0.0
 70
0
  0
VERTEX
  5
64
  8
0
 10
1604.0
 20
188.0
 30
0.0
 70
0
  0
VERTEX
  5
65
  8
0
 10
1603.0
 20
188.0
 30
0.0
 70
0
  0
VERTEX
  5
66
  8
0
 10
1601.0
 20
190.0
 30
0.0
 70
0
  0
VERTEX
  5
67
  8
0
 10
1600.0
 20
190.0
 30
0.0
 70
0
  0
VERTEX
  5
68
  8
0
 10
1599.0
 20
191.0
 30
0.0
 70
0
  0
VERTEX
  5
69
  8
0
 10
1598.0
 20
191.0
 30
0.0
 70
0
  0
VERTEX
  5
6A
  8
0
 10
1597.0
 20
192.0
 30
0.0
 70
0
  0
VERTEX
  5
6B
  8
0
 10
1596.0
 20
192.0
 30
0.0
 70
0
  0
VERTEX
  5
6C
  8
0
 10
1594.0
 20
194.0
 30
0.0
 70
0
  0
VERTEX
  5
6D
  8
0
 10
1593.0
 20
194.0
 30
0.0
 70
0
  0
VERTEX
  5
6E
  8
0
 10
1592.0
 20
195.0
 30
0.0
 70
0
  0
VERTEX
  5
6F
  8
0
 10
1591.0
 20
195.0
 30
0.0
 70
0
  0
VERTEX
  5
70
  8
0
 10
1590.0
 20
196.0
 30
0.0
 70
0
  0
VERTEX
  5
71
  8
0
 10
1589.0
 20
196.0
 30
0.0
 70
0
  0
VERTEX
  5
72
  8
0
 10
1587.0
 20
198.0
 30
0.0
 70
0
  0
VERTEX
  5
73
  8
0
 10
1586.0
 20
198.0
 30
0.0
 70
0
  0
VERTEX
  5
74
  8
0
 10
1585.0
 20
199.0
 30
0.0
 70
0
  0
VERTEX
  5
75
  8
0
 10
1584.0
 20
199.0
 30
0.0
 70
0
  0
VERTEX
  5
76
  8
0
 10
1582.0
 20
201.0
 30
0.0
 70
0
  0
VERTEX
  5
77
  8
0
 10
1581.0
 20
201.0
 30
0.0
 70
0
  0
VERTEX
  5
78
  8
0
 10
1580.0
 20
202.0
 30
0.0
 70
0
  0
VERTEX
  5
79
  8
0
 10
1579.0
 20
202.0
 30
0.0
 70
0
  0
VERTEX
  5
7A
  8
0
 10
1578.0
 20
203.0
 30
0.0
 70
0
  0
VERTEX
  5
7B
  8
0
 10
1577.0
 20
203.0
 30
0.0
 70
0
  0
VERTEX
  5
7C
  8
0
 10
1575.0
 20
205.0
 30
0.0
 70
0
  0
VERTEX
  5
7D
  8
0
 10
1574.0
 20
205.0
 30
0.0
 70
0
  0
VERTEX
  5
7E
  8
0
 10
1573.0
 20
206.0
 30
0.0
 70
0
  0
VERTEX
  5
7F
  8
0
 10
1572.0
 20
206.0
 30
0.0
 70
0
  0
VERTEX
  5
80
  8
0
 10
1570.0
 20
208.0
 30
0.0
 70
0
  0
VERTEX
  5
81
  8
0
 10
1569.0
 20
208.0
 30
0.0
 70
0
  0
VERTEX
  5
82
  8
0
 10
1568.0
 20
209.0
 30
0.0
 70
0
  0
VERTEX
  5
83
  8
0
 10
1567.0
 20
209.0
 30
0.0
 70
0
  0
VERTEX
  5
84
  8
0
 10
1566.0
 20
210.0
 30
0.0
 70
0
  0
VERTEX
  5
85
  8
0
 10
1565.0
 20
210.0
 30
0.0
 70
0
  0
VERTEX
  5
86
  8
0
 10
1563.0
 20
212.0
 30
0.0
 70
0
  0
VERTEX
  5
87
  8
0
 10
1562.0
 20
212.0
 30
0.0
 70
0
  0
VERTEX
  5
88
  8
0
 10
1561.0
 20
213.0
 30
0.0
 70
0
  0
VERTEX
  5
89
  8
0
 10
1560.0
 20
213.0
 30
0.0
 70
0
  0
VERTEX
  5
8A
  8
0
 10
1558.0
 20
215.0
 30
0.0
 70
0
  0
VERTEX
  5
8B
  8
0
 10
1557.0
 20
215.0
 30
0.0
 70
0
  0
VERTEX
  5
8C
  8
0
 10
1556.0
 20
216.0
 30
0.0
 70
0
  0
VERTEX
  5
8D
  8
0
 10
1555.0
 20
216.0
 30
0.0
 70
0
  0
VERTEX
  5
8E
  8
0
 10
1553.0
 20
218.0
 30
0.0
 70
0
  0
VERTEX
  5
8F
  8
0
 10
1552.0
 20
218.0
 30
0.0
 70
0
  0
VERTEX
  5
90
  8
0
 10
1551.0
 20
219.0
 30
0.0
 70
0
  0
VERTEX
  5
91
  8
0
 10
1550.0
 20
219.0
 30
0.0
 70
0
  0
VERTEX
  5
92
  8
0
 10
1548.0
 20
221.0
 30
0.0
 70
0
  0
VERTEX
  5
93
  8
0
 10
1547.0
 20
221.0
 30
0.0
 70
0
  0
VERTEX
  5
94
  8
0
 10
1546.0
 20
222.0
 30
0.0
 70
0
  0
VERTEX
  5
95
  8
0
 10
1545.0
 20
222.0
 30
0.0
 70
0
  0
VERTEX
  5
96
  8
0
 10
1544.0
 20
223.0
 30
0.0
 70
0
  0
VERTEX
  5
97
  8
0
 10
1543.0
 20
223.0
 30
0.0
 70
0
  0
VERTEX
  5
98
  8
0
 10
1541.0
 20
225.0
 30
0.0
 70
0
  0
VERTEX
  5
99
  8
0
 10
1540.0
 20
225.0
 30
0.0
 70
0
  0
VERTEX
  5
9A
  8
0
 10
1539.0
 20
226.0
 30
0.0
 70
0
  0
VERTEX
  5
9B
  8
0
 10
1538.0
 20
226.0
 30
0.0
 70
0
  0
VERTEX
  5
9C
  8
0
 10
1536.0
 20
228.0
 30
0.0
 70
0
  0
VERTEX
  5
9D
  8
0
 10
1535.0
 20
228.0
 30
0.0
 70
0
  0
VERTEX
  5
9E
  8
0
 10
1534.0
 20
229.0
 30
0.0
 70
0
  0
VERTEX
  5
9F
  8
0
 10
1533.0
 20
229.0
 30
0.0
 70
0
  0
VERTEX
  5
A0
  8
0
 10
1531.0
 20
231.0
 30
0.0
 70
0
  0
VERTEX
  5
A1
  8
0
 10
1530.0
 20
231.0
 30
0.0
 70
0
  0
VERTEX
  5
A2
  8
0
 10
1529.0
 20
232.0
 30
0.0
 70
0
  0
VERTEX
  5
A3
  8
0
 10
1528.0
 20
232.0
 30
0.0
 70
0
  0
VERTEX
  5
A4
  8
0
 10
1526.0
 20
234.0
 30
0.0
 70
0
  0
VERTEX
  5
A5
  8
0
 10
1525.0
 20
234.0
 30
0.0
 70
0
  0
VERTEX
  5
A6
  8
0
 10
1523.0
 20
236.0
 30
0.0
 70
0
  0
VERTEX
  5
A7
  8
0
 10
1522.0
 20
236.0
 30
0.0
 70
0
  0
VERTEX
  5
A8
  8
0
 10
1521.0
 20
237.0
 30
0.0
 70
0
  0
VERTEX
  5
A9
  8
0
 10
1520.0
 20
237.0
 30
0.0
 70
0
  0
VERTEX
  5
AA
  8
0
 10
1518.0
 20
239.0
 30
0.0
 70
0
  0
VERTEX
  5
AB
  8
0
 10
1517.0
 20
239.0
 30
0.0
 70
0
  0
VERTEX
  5
AC
  8
0
 10
1516.0
 20
240.0
 30
0.0
 70
0
  0
VERTEX
  5
AD
  8
0
 10
1515.0
 20
240.0
 30
0.0
 70
0
  0
VERTEX
  5
AE
  8
0
 10
1513.0
 20
242.0
 30
0.0
 70
0
  0
VERTEX
  5
AF
  8
0
 10
1512.0
 20
242.0
 30
0.0
 70
0
  0
VERTEX
  5
B0
  8
0
 10
1511.0
 20
243.0
 30
0.0
 70
0
  0
VERTEX
  5
B1
  8
0
 10
1510.0
 20
243.0
 30
0.0
 70
0
  0
VERTEX
  5
B2
  8
0
 10
1508.0
 20
245.0
 30
0.0
 70
0
  0
VERTEX
  5
B3
  8
0
 10
1507.0
 20
245.0
 30
0.0
 70
0
  0
VERTEX
  5
B4
  8
0
 10
1506.0
 20
246.0
 30
0.0
 70
0
  0
VERTEX
  5
B5
  8
0
 10
1505.0
 20
246.0
 30
0.0
 70
0
  0
VERTEX
  5
B6
  8
0
 10
1503.0
 20
248.0
 30
0.0
 70
0
  0
VERTEX
  5
B7
  8
0
 10
1502.0
 20
248.0
 30
0.0
 70
0
  0
VERTEX
  5
B8
  8
0
 10
1500.0
 20
250.0
 30
0.0
 70
0
  0
VERTEX
  5
B9
  8
0
 10
1499.0
 20
250.0
 30
0.0
 70
0
  0
VERTEX
  5
BA
  8
0
 10
1498.0
 20
251.0
 30
0.0
 70
0
  0
VERTEX
  5
BB
  8
0
 10
1497.0
 20
251.0
 30
0.0
 70
0
  0
VERTEX
  5
BC
  8
0
 10
1495.0
 20
253.0
 30
0.0
 70
0
  0
VERTEX
  5
BD
  8
0
 10
1494.0
 20
253.0
 30
0.0
 70
0
  0
VERTEX
  5
BE
  8
0
 10
1492.0
 20
255.0
 30
0.0
 70
0
  0
VERTEX
  5
BF
  8
0
 10
1491.0
 20
255.0
 30
0.0
 70
0
  0
VERTEX
  5
C0
  8
0
 10
1490.0
 20
256.0
 30
0.0
 70
0
  0
VERTEX
  5
C1
  8
0
 10
1489.0
 20
256.0
 30
0.0
 70
0
  0
VERTEX
  5
C2
  8
0
 10
1487.0
 20
258.0
 30
0.0
 70
0
  0
VERTEX
  5
C3
  8
0
 10
1486.0
 20
258.0
 30
0.0
 70
0
  0
VERTEX
  5
C4
  8
0
 10
1485.0
 20
259.0
 30
0.0
 70
0
  0
VERTEX
  5
C5
  8
0
 10
1484.0
 20
259.0
 30
0.0
 70
0
  0
VERTEX
  5
C6
  8
0
 10
1482.0
 20
261.0
 30
0.0
 70
0
  0
VERTEX
  5
C7
  8
0
 10
1481.0
 20
261.0
 30
0.0
 70
0
  0
VERTEX
  5
C8
  8
0
 10
1479.0
 20
263.0
 30
0.0
 70
0
  0
VERTEX
  5
C9
  8
0
 10
1478.0
 20
263.0
 30
0.0
 70
0
  0
VERTEX
  5
CA
  8
0
 10
1476.0
 20
265.0
 30
0.0
 70
0
  0
VERTEX
  5
CB
  8
0
 10
1475.0
 20
265.0
 30
0.0
 70
0
  0
VERTEX
  5
CC
  8
0
 10
1474.0
 20
266.0
 30
0.0
 70
0
  0
VERTEX
  5
CD
  8
0
 10
1473.0
 20
266.0
 30
0.0
 70
0
  0
VERTEX
  5
CE
  8
0
 10
1471.0
 20
268.0
 30
0.0
 70
0
  0
VERTEX
  5
CF
  8
0
 10
1470.0
 20
268.0
 30
0.0
 70
0
  0
VERTEX
  5
D0
  8
0
 10
1468.0
 20
270.0
 30
0.0
 70
0
  0
VERTEX
  5
D1
  8
0
 10
1467.0
 20
270.0
 30
0.0
 70
0
  0
VERTEX
  5
D2
  8
0
 10
1466.0
 20
271.0
 30
0.0
 70
0
  0
VERTEX
  5
D3
  8
0
 10
1465.0
 20
271.0
 30
0.0
 70
0
  0
VERTEX
  5
D4
  8
0
 10
1463.0
 20
273.0
 30
0.0
 70
0
  0
VERTEX
  5
D5
  8
0
 10
1462.0
 20
273.0
 30
0.0
 70
0
  0
VERTEX
  5
D6
  8
0
 10
1460.0
 20
275.0
 30
0.0
 70
0
  0
VERTEX
  5
D7
  8
0
 10
1459.0
 20
275.0
 30
0.0
 70
0
  0
VERTEX
  5
D8
  8
0
 10
1457.0
 20
277.0
 30
0.0
 70
0
  0
VERTEX
  5
D9
  8
0
 10
1456.0
 20
277.0
 30
0.0
 70
0
  0
VERTEX
  5
DA
  8
0
 10
1455.0
 20
278.0
 30
0.0
 70
0
  0
VERTEX
  5
DB
  8
0
 10
1454.0
 20
278.0
 30
0.0
 70
0
  0
VERTEX
  5
DC
  8
0
 10
1452.0
 20
280.0
 30
0.0
 70
0
  0
VERTEX
  5
DD
  8
0
 10
1451.0
 20
280.0
 30
0.0
 70
0
  0
VERTEX
  5
DE
  8
0
 10
1449.0
 20
282.0
 30
0.0
 70
0
  0
VERTEX
  5
DF
  8
0
 10
1448.0
 20
282.0
 30
0.0
 70
0
  0
VERTEX
  5
E0
  8
0
 10
1446.0
 20
284.0
 30
0.0
 70
0
  0
VERTEX
  5
E1
  8
0
 10
1445.0
 20
284.0
 30
0.0
 70
0
  0
VERTEX
  5
E2
  8
0
 10
1443.0
 20
286.0
 30
0.0
 70
0
  0
VERTEX
  5
E3
  8
0
 10
1442.0
 20
286.0
 30
0.0
 70
0
  0
VERTEX
  5
E4
  8
0
 10
1440.0
 20
288.0
 30
0.0
 70
0
  0
VERTEX
  5
E5
  8
0
 10
1439.0
 20
288.0
 30
0.0
 70
0
  0
VERTEX
  5
E6
  8
0
 10
1438.0
 20
289.0
 30
0.0
 70
0
  0
VERTEX
  5
E7
  8
0
 10
1437.0
 20
289.0
 30
0.0
 70
0
  0
VERTEX
  5
E8
  8
0
 10
1435.0
 20
291.0
 30
0.0
 70
0
  0
VERTEX
  5
E9
  8
0
 10
1434.0
 20
291.0
 30
0.0
 70
0
  0
VERTEX
  5
EA
  8
0
 10
1432.0
 20
293.0
 30
0.0
 70
0
  0
VERTEX
  5
EB
  8
0
 10
1431.0
 20
293.0
 30
0.0
 70
0
  0
VERTEX
  5
EC
  8
0
 10
1429.0
 20
295.0
 30
0.0
 70
0
  0
VERTEX
  5
ED
  8
0
 10
1428.0
 20
295.0
 30
0.0
 70
0
  0
VERTEX
  5
EE
  8
0
 10
1426.0
 20
297.0
 30
0.0
 70
0
  0
VERTEX
  5
EF
  8
0
 10
1425.0
 20
297.0
 30
0.0
 70
0
  0
VERTEX
  5
F0
  8
0
 10
1423.0
 20
299.0
 30
0.0
 70
0
  0
VERTEX
  5
F1
  8
0
 10
1422.0
 20
299.0
 30
0.0
 70
0
  0
VERTEX
  5
F2
  8
0
 10
1420.0
 20
301.0
 30
0.0
 70
0
  0
VERTEX
  5
F3
  8
0
 10
1419.0
 20
301.0
 30
0.0
 70
0
  0
VERTEX
  5
F4
  8
0
 10
1417.0
 20
303.0
 30
0.0
 70
0
  0
VERTEX
  5
F5
  8
0
 10
1416.0
 20
303.0
 30
0.0
 70
0
  0
VERTEX
  5
F6
  8
0
 10
1414.0
 20
305.0
 30
0.0
 70
0
  0
VERTEX
  5
F7
  8
0
 10
1413.0
 20
305.0
 30
0.0
 70
0
  0
VERTEX
  5
F8
  8
0
 10
1411.0
 20
307.0
 30
0.0
 70
0
  0
VERTEX
  5
F9
  8
0
 10
1410.0
 20
307.0
 30
0.0
 70
0
  0
VERTEX
  5
FA
  8
0
 10
1408.0
 20
309.0
 30
0.0
 70
0
  0
VERTEX
  5
FB
  8
0
 10
1407.0
 20
309.0
 30
0.0
 70
0
  0
VERTEX
  5
FC
  8
0
 10
1405.0
 20
311.0
 30
0.0
 70
0
  0
VERTEX
  5
FD
  8
0
 10
1404.0
 20
311.0
 30
0.0
 70
0
  0
VERTEX
  5
FE
  8
0
 10
1402.0
 20
313.0
 30
0.0
 70
0
  0
VERTEX
  5
FF
  8
0
 10
1401.0
 20
313.0
 30
0.0
 70
0
  0
VERTEX
  5
100
  8
0
 10
1399.0
 20
315.0
 30
0.0
 70
0
  0
VERTEX
  5
101
  8
0
 10
1398.0
 20
315.0
 30
0.0
 70
0
  0
VERTEX
  5
102
  8
0
 10
1395.0
 20
318.0
 30
0.0
 70
0
  0
VERTEX
  5
103
  8
0
 10
1394.0
 20
318.0
 30
0.0
 70
0
  0
VERTEX
  5
104
  8
0
 10
1392.0
 20
320.0
 30
0.0
 70
0
  0
VERTEX
  5
105
  8
0
 10
1391.0
 20
320.0
 30
0.0
 70
0
  0
VERTEX
  5
106
  8
0
 10
1389.0
 20
322.0
 30
0.0
 70
0
  0
VERTEX
  5
107
  8
0
 10
1388.0
 20
322.0
 30
0.0
 70
0
  0
VERTEX
  5
108
  8
0
 10
1386.0
 20
324.0
 30
0.0
 70
0
  0
VERTEX
  5
109
  8
0
 10
1385.0
 20
324.0
 30
0.0
 70
0
  0
VERTEX
  5
10A
  8
0
 10
1382.0
 20
327.0
 30
0.0
 70
0
  0
VERTEX
  5
10B
  8
0
 10
1381.0
 20
327.0
 30
0.0
 70
0
  0
VERTEX
  5
10C
  8
0
 10
1379.0
 20
329.0
 30
0.0
 70
0
  0
VERTEX
  5
10D
  8
0
 10
1378.0
 20
329.0
 30
0.0
 70
0
  0
VERTEX
  5
10E
  8
0
 10
1376.0
 20
331.0
 30
0.0
 70
0
  0
VERTEX
  5
10F
  8
0
 10
1375.0
 20
331.0
 30
0.0
 70
0
  0
VERTEX
  5
110
  8
0
 10
1372.0
 20
334.0
 30
0.0
 70
0
  0
VERTEX
  5
111
  8
0
 10
1371.0
 20
334.0
 30
0.0
 70
0
  0
VERTEX
  5
112
  8
0
 10
1369.0
 20
336.0
 30
0.0
 70
0
  0
VERTEX
  5
113
  8
0
 10
1368.0
 20
336.0
 30
0.0
 70
0
  0
VERTEX
  5
114
  8
0
 10
1366.0
 20
338.0
 30
0.0
 70
0
  0
VERTEX
  5
115
  8
0
 10
1365.0
 20
338.0
 30
0.0
 70
0
  0
VERTEX
  5
116
  8
0
 10
1362.0
 20
341.0
 30
0.0
 70
0
  0
VERTEX
  5
117
  8
0
 10
1361.0
 20
341.0
 30
0.0
 70
0
  0
VERTEX
  5
118
  8
0
 10
1358.0
 20
344.0
 30
0.0
 70
0
  0
VERTEX
  5
119
  8
0
 10
1357.0
 20
344.0
 30
0.0
 70
0
  0
VERTEX
  5
11A
  8
0
 10
1355.0
 20
346.0
 30
0.0
 70
0
  0
VERTEX
  5
11B
  8
0
 10
1354.0
 20
346.0
 30
0.0
 70
0
  0
VERTEX
  5
11C
  8
0
 10
1351.0
 20
349.0
 30
0.0
 70
0
  0
VERTEX
  5
11D
  8
0
 10
1350.0
 20
349.0
 30
0.0
 70
0
  0
VERTEX
  5
11E
  8
0
 10
1348.0
 20
351.0
 30
0.0
 70
0
  0
VERTEX
  5
11F
  8
0
 10
1347.0
 20
351.0
 30
0.0
 70
0
  0
VERTEX
  5
120
  8
0
 10
1344.0
 20
354.0
 30
0.0
 70
0
  0
VERTEX
  5
121
  8
0
 10
1343.0
 20
354.0
 30
0.0
 70
0
  0
VERTEX
  5
122
  8
0
 10
1340.0
 20
357.0
 30
0.0
 70
0
  0
VERTEX
  5
123
  8
0
 10
1339.0
 20
357.0
 30
0.0
 70
0
  0
VERTEX
  5
124
  8
0
 10
1336.0
 20
360.0
 30
0.0
 70
0
  0
VERTEX
  5
125
  8
0
 10
1335.0
 20
360.0
 30
0.0
 70
0
  0
VERTEX
  5
126
  8
0
 10
1332.0
 20
363.0
 30
0.0
 70
0
  0
VERTEX
  5
127
  8
0
 10
1331.0
 20
363.0
 30
0.0
 70
0
  0
VERTEX
  5
128
  8
0
 10
1328.0
 20
366.0
 30
0.0
 70
0
  0
VERTEX
  5
129
  8
0
 10
1327.0
 20
366.0
 30
0.0
 70
0
  0
VERTEX
  5
12A
  8
0
 10
1324.0
 20
369.0
 30
0.0
 70
0
  0
VERTEX
  5
12B
  8
0
 10
1323.0
 20
369.0
 30
0.0
 70
0
  0
VERTEX
  5
12C
  8
0
 10
1320.0
 20
372.0
 30
0.0
 70
0
  0
VERTEX
  5
12D
  8
0
 10
1319.0
 20
372.0
 30
0.0
 70
0
  0
VERTEX
  5
12E
  8
0
 10
1315.0
 20
376.0
 30
0.0
 70
0
  0
VERTEX
  5
12F
  8
0
 10
1314.0
 20
376.0
 30
0.0
 70
0
  0
VERTEX
  5
130
  8
0
 10
1311.0
 20
379.0
 30
0.0
 70
0
  0
VERTEX
  5
131
  8
0
 10
1310.0
 20
379.0
 30
0.0
 70
0
  0
VERTEX
  5
132
  8
0
 10
1306.0
 20
383.0
 30
0.0
 70
0
  0
VERTEX
  5
133
  8
0
 10
1305.0
 20
383.0
 30
0.0
 70
0
  0
VERTEX
  5
134
  8
0
 10
1301.0
 20
387.0
 30
0.0
 70
0
  0
VERTEX
  5
135
  8
0
 10
1300.0
 20
387.0
 30
0.0
 70
0
  0
VERTEX
  5
136
  8
0
 10
1296.0
 20
391.0
 30
0.0
 70
0
  0
VERTEX
  5
137
  8
0
 10
1295.0
 20
391.0
 30
0.0
 70
0
  0
VERTEX
  5
138
  8
0
 10
1291.0
 20
395.0
 30
0.0
 70
0
  0
VERTEX
  5
139
  8
0
 10
1290.0
 20
395.0
 30
0.0
 70
0
  0
VERTEX
  5
13A
  8
0
 10
1286.0
 20
399.0
 30
0.0
 70
0
  0
VERTEX
  5
13B
  8
0
 10
1285.0
 20
399.0
 30
0.0
 70
0
  0
VERTEX
  5
13C
  8
0
 10
1280.0
 20
404.0
 30
0.0
 70
0
  0
VERTEX
  5
13D
  8
0
 10
1279.0
 20
404.0
 30
0.0
 70
0
  0
VERTEX
  5
13E
  8
0
 10
1273.0
 20
410.0
 30
0.0
 70
0
  0
VERTEX
  5
13F
  8
0
 10
1272.0
 20
410.0
 30
0.0
 70
0
  0
VERTEX
  5
140
  8
0
 10
1267.0
 20
415.0
 30
0.0
 70
0
  0
VERTEX
  5
141
  8
0
 10
1266.0
 20
415.0
 30
0.0
 70
0
  0
VERTEX
  5
142
  8
0
 10
1259.0
 20
422.0
 30
0.0
 70
0
  0
VERTEX
  5
143
  8
0
 10
1258.0
 20
422.0
 30
0.0
 70
0
  0
VERTEX
  5
144
  8
0
 10
1249.0
 20
431.0
 30
0.0
 70
0
  0
VERTEX
  5
145
  8
0
 10
1248.0
 20
431.0
 30
0.0
 70
0
  0
VERTEX
  5
146
  8
0
 10
1236.0
 20
443.0
 30
0.0
 70
0
  0
VERTEX
  5
147
  8
0
 10
1235.0
 20
443.0
 30
0.0
 70
0
  0
VERTEX
  5
148
  8
0
 10
1207.0
 20
471.0
 30
0.0
 70
0
  0
VERTEX
  5
149
  8
0
 10
1207.0
 20
472.0
 30
0.0
 70
0
  0
VERTEX
  5
14A
  8
0
 10
1196.0
 20
483.0
 30
0.0
 70
0
  0
VERTEX
  5
14B
  8
0
 10
1196.0
 20
484.0
 30
0.0
 70
0
  0
VERTEX
  5
14C
  8
0
 10
1189.0
 20
491.0
 30
0.0
 70
0
  0
VERTEX
  5
14D
  8
0
 10
1189.0
 20
492.0
 30
0.0
 70
0
  0
VERTEX
  5
14E
  8
0
 10
1183.0
 20
498.0
 30
0.0
 70
0
  0
VERTEX
  5
14F
  8
0
 10
1183.0
 20
499.0
 30
0.0
 70
0
  0
VERTEX
  5
150
  8
0
 10
1179.0
 20
503.0
 30
0.0
 70
0
  0
VERTEX
  5
151
  8
0
 10
1179.0
 20
504.0
 30
0.0
 70
0
  0
VERTEX
  5
152
  8
0
 10
1175.0
 20
508.0
 30
0.0
 70
0
  0
VERTEX
  5
153
  8
0
 10
1175.0
 20
509.0
 30
0.0
 70
0
  0
VERTEX
  5
154
  8
0
 10
1171.0
 20
513.0
 30
0.0
 70
0
  0
VERTEX
  5
155
  8
0
 10
1171.0
 20
514.0
 30
0.0
 70
0
  0
VERTEX
  5
156
  8
0
 10
1168.0
 20
517.0
 30
0.0
 70
0
  0
VERTEX
  5
157
  8
0
 10
1168.0
 20
518.0
 30
0.0
 70
0
  0
VERTEX
  5
158
  8
0
 10
1166.0
 20
520.0
 30
0.0
 70
0
  0
VERTEX
  5
159
  8
0
 10
1166.0
 20
521.0
 30
0.0
 70
0
  0
VERTEX
  5
15A
  8
0
 10
1163.0
 20
524.0
 30
0.0
 70
0
  0
VERTEX
  5
15B
  8
0
 10
1163.0
 20
525.0
 30
0.0
 70
0
  0
VERTEX
  5
15C
  8
0
 10
1161.0
 20
527.0
 30
0.0
 70
0
  0
VERTEX
  5
15D
  8
0
 10
1161.0
 20
528.0
 30
0.0
 70
0
  0
VERTEX
  5
15E
  8
0
 10
1158.0
 20
531.0
 30
0.0
 70
0
  0
VERTEX
  5
15F
  8
0
 10
1158.0
 20
532.0
 30
0.0
 70
0
  0
VERTEX
  5
160
  8
0
 10
1156.0
 20
534.0
 30
0.0
 70
0
  0
VERTEX
  5
161
  8
0
 10
1156.0
 20
535.0
 30
0.0
 70
0
  0
VERTEX
  5
162
  8
0
 10
1154.0
 20
537.0
 30
0.0
 70
0
  0
VERTEX
  5
163
  8
0
 10
1154.0
 20
538.0
 30
0.0
 70
0
  0
VERTEX
  5
164
  8
0
 10
1152.0
 20
540.0
 30
0.0
 70
0
  0
VERTEX
  5
165
  8
0
 10
1152.0
 20
541.0
 30
0.0
 70
0
  0
VERTEX
  5
166
  8
0
 10
1151.0
 20
542.0
 30
0.0
 70
0
  0
VERTEX
  5
167
  8
0
 10
1151.0
 20
543.0
 30
0.0
 70
0
  0
VERTEX
  5
168
  8
0
 10
1149.0
 20
545.0
 30
0.0
 70
0
  0
VERTEX
  5
169
  8
0
 10
1149.0
 20
546.0
 30
0.0
 70
0
  0
VERTEX
  5
16A
  8
0
 10
1148.0
 20
547.0
 30
0.0
 70
0
  0
VERTEX
  5
16B
  8
0
 10
1148.0
 20
548.0
 30
0.0
 70
0
  0
VERTEX
  5
16C
  8
0
 10
1146.0
 20
550.0
 30
0.0
 70
0
  0
VERTEX
  5
16D
  8
0
 10
1146.0
 20
551.0
 30
0.0
 70
0
  0
VERTEX
  5
16E
  8
0
 10
1145.0
 20
552.0
 30
0.0
 70
0
  0
VERTEX
  5
16F
  8
0
 10
1145.0
 20
553.0
 30
0.0
 70
0
  0
VERTEX
  5
170
  8
0
 10
1143.0
 20
555.0
 30
0.0
 70
0
  0
VERTEX
  5
171
  8
0
 10
1143.0
 20
556.0
 30
0.0
 70
0
  0
VERTEX
  5
172
  8
0
 10
1142.0
 20
557.0
 30
0.0
 70
0
  0
VERTEX
  5
173
  8
0
 10
1142.0
 20
558.0
 30
0.0
 70
0
  0
VERTEX
  5
174
  8
0
 10
1141.0
 20
559.0
 30
0.0
 70
0
  0
VERTEX
  5
175
  8
0
 10
1141.0
 20
560.0
 30
0.0
 70
0
  0
VERTEX
  5
176
  8
0
 10
1140.0
 20
561.0
 30
0.0
 70
0
  0
VERTEX
  5
177
  8
0
 10
1140.0
 20
562.0
 30
0.0
 70
0
  0
VERTEX
  5
178
  8
0
 10
1138.0
 20
564.0
 30
0.0
 70
0
  0
VERTEX
  5
179
  8
0
 10
1138.0
 20
565.0
 30
0.0
 70
0
  0
VERTEX
  5
17A
  8
0
 10
1137.0
 20
566.0
 30
0.0
 70
0
  0
VERTEX
  5
17B
  8
0
 10
1137.0
 20
567.0
 30
0.0
 70
0
  0
VERTEX
  5
17C
  8
0
 10
1136.0
 20
568.0
 30
0.0
 70
0
  0
VERTEX
  5
17D
  8
0
 10
1136.0
 20
569.0
 30
0.0
 70
0
  0
VERTEX
  5
17E
  8
0
 10
1135.0
 20
570.0
 30
0.0
 70
0
  0
VERTEX
  5
17F
  8
0
 10
1135.0
 20
571.0
 30
0.0
 70
0
  0
VERTEX
  5
180
  8
0
 10
1134.0
 20
572.0
 30
0.0
 70
0
  0
VERTEX
  5
181
  8
0
 10
1134.0
 20
573.0
 30
0.0
 70
0
  0
VERTEX
  5
182
  8
0
 10
1133.0
 20
574.0
 30
0.0
 70
0
  0
VERTEX
  5
183
  8
0
 10
1133.0
 20
576.0
 30
0.0
 70
0
  0
VERTEX
  5
184
  8
0
 10
1132.0
 20
577.0
 30
0.0
 70
0
  0
VERTEX
  5
185
  8
0
 10
1132.0
 20
578.0
 30
0.0
 70
0
  0
VERTEX
  5
186
  8
0
 10
1131.0
 20
579.0
 30
0.0
 70
0
  0
VERTEX
  5
187
  8
0
 10
1131.0
 20
580.0
 30
0.0
 70
0
  0
VERTEX
  5
188
  8
0
 10
1130.0
 20
581.0
 30
0.0
 70
0
  0
VERTEX
  5
189
  8
0
 10
1130.0
 20
582.0
 30
0.0
 70
0
  0
VERTEX
  5
18A
  8
0
 10
1129.0
 20
583.0
 30
0.0
 70
0
  0
VERTEX
  5
18B
  8
0
 10
1129.0
 20
585.0
 30
0.0
 70
0
  0
VERTEX
  5
18C
  8
0
 10
1128.0
 20
586.0
 30
0.0
 70
0
  0
VERTEX
  5
18D
  8
0
 10
1128.0
 20
587.0
 30
0.0
 70
0
  0
VERTEX
  5
18E
  8
0
 10
1127.0
 20
588.0
 30
0.0
 70
0
  0
VERTEX
  5
18F
  8
0
 10
1127.0
 20
589.0
 30
0.0
 70
0
  0
VERTEX
  5
190
  8
0
 10
1126.0
 20
590.0
 30
0.0
 70
0
  0
VERTEX
  5
191
  8
0
 10
1126.0
 20
592.0
 30
0.0
 70
0
  0
VERTEX
  5
192
  8
0
 10
1125.0
 20
593.0
 30
0.0
 70
0
  0
VERTEX
  5
193
  8
0
 10
1125.0
 20
595.0
 30
0.0
 70
0
  0
VERTEX
  5
194
  8
0
 10
1124.0
 20
596.0
 30
0.0
 70
0
  0
VERTEX
  5
195
  8
0
 10
1124.0
 20
597.0
 30
0.0
 70
0
  0
VERTEX
  5
196
  8
0
 10
1123.0
 20
598.0
 30
0.0
 70
0
  0
VERTEX
  5
197
  8
0
 10
1123.0
 20
600.0
 30
0.0
 70
0
  0
VERTEX
  5
198
  8
0
 10
1122.0
 20
601.0
 30
0.0
 70
0
  0
VERTEX
  5
199
  8
0
 10
1122.0
 20
603.0
 30
0.0
 70
0
  0
VERTEX
  5
19A
  8
0
 10
1121.0
 20
604.0
 30
0.0
 70
0
  0
VERTEX
  5
19B
  8
0
 10
1121.0
 20
606.0
 30
0.0
 70
0
  0
VERTEX
  5
19C
  8
0
 10
1120.0
 20
607.0
 30
0.0
 70
0
  0
VERTEX
  5
19D
  8
0
 10
1120.0
 20
610.0
 30
0.0
 70
0
  0
VERTEX
  5
19E
  8
0
 10
1119.0
 20
611.0
 30
0.0
 70
0
  0
VERTEX
  5
19F
  8
0
 10
1119.0
 20
613.0
 30
0.0
 70
0
  0
VERTEX
  5
1A0
  8
0
 10
1118.0
 20
614.0
 30
0.0
 70
0
  0
VERTEX
  5
1A1
  8
0
 10
1118.0
 20
617.0
 30
0.0
 70
0
  0
VERTEX
  5
1A2
  8
0
 10
1117.0
 20
618.0
 30
0.0
 70
0
  0
VERTEX
  5
1A3
  8
0
 10
1117.0
 20
621.0
 30
0.0
 70
0
  0
VERTEX
  5
1A4
  8
0
 10
1116.0
 20
622.0
 30
0.0
 70
0
  0
VERTEX
  5
1A5
  8
0
 10
1116.0
 20
625.0
 30
0.0
 70
0
  0
VERTEX
  5
1A6
  8
0
 10
1115.0
 20
626.0
 30
0.0
 70
0
  0
VERTEX
  5
1A7
  8
0
 10
1115.0
 20
630.0
 30
0.0
 70
0
  0
VERTEX
  5
1A8
  8
0
 10
1114.0
 20
631.0
 30
0.0
 70
0
  0
VERTEX
  5
1A9
  8
0
 10
1114.0
 20
636.0
 30
0.0
 70
0
  0
VERTEX
  5
1AA
  8
0
 10
1113.0
 20
637.0
 30
0.0
 70
0
  0
VERTEX
  5
1AB
  8
0
 10
1113.0
 20
644.0
 30
0.0
 70
0
  0
VERTEX
  5
1AC
  8
0
 10
1112.0
 20
645.0
 30
0.0
 70
0
  0
VERTEX
  5
1AD
  8
0
 10
1112.0
 20
655.0
 30
0.0
 70
0
  0
VERTEX
  5
1AE
  8
0
 10
1111.0
 20
656.0
 30
0.0
 70
0
  0
VERTEX
  5
1AF
  8
0
 10
1111.0
 20
677.0
 30
0.0
 70
0
  0
VERTEX
  5
1B0
  8
0
 10
1112.0
 20
678.0
 30
0.0
 70
0
  0
VERTEX
  5
1B1
  8
0
 10
1112.0
 20
689.0
 30
0.0
 70
0
  0
VERTEX
  5
1B2
  8
0
 10
1113.0
 20
690.0
 30
0.0
 70
0
  0
VERTEX
  5
1B3
  8
0
 10
1113.0
 20
696.0
 30
0.0
 70
0
  0
VERTEX
  5
1B4
  8
0
 10
1114.0
 20
697.0
 30
0.0
 70
0
  0
VERTEX
  5
1B5
  8
0
 10
1114.0
 20
702.0
 30
0.0
 70
0
  0
VERTEX
  5
1B6
  8
0
 10
1115.0
 20
703.0
 30
0.0
 70
0
  0
VERTEX
  5
1B7
  8
0
 10
1115.0
 20
707.0
 30
0.0
 70
0
  0
VERTEX
  5
1B8
  8
0
 10
1116.0
 20
708.0
 30
0.0
 70
0
  0
VERTEX
  5
1B9
  8
0
 10
1116.0
 20
711.0
 30
0.0
 70
0
  0
VERTEX
  5
1BA
  8
0
 10
1117.0
 20
712.0
 30
0.0
 70
0
  0
VERTEX
  5
1BB
  8
0
 10
1117.0
 20
715.0
 30
0.0
 70
0
  0
VERTEX
  5
1BC
  8
0
 10
1118.0
 20
716.0
 30
0.0
 70
0
  0
VERTEX
  5
1BD
  8
0
 10
1118.0
 20
719.0
 30
0.0
 70
0
  0
VERTEX
  5
1BE
  8
0
 10
1119.0
 20
720.0
 30
0.0
 70
0
  0
VERTEX
  5
1BF
  8
0
 10
1119.0
 20
723.0
 30
0.0
 70
0
  0
VERTEX
  5
1C0
  8
0
 10
1120.0
 20
724.0
 30
0.0
 70
0
  0
VERTEX
  5
1C1
  8
0
 10
1120.0
 20
726.0
 30
0.0
 70
0
  0
VERTEX
  5
1C2
  8
0
 10
1121.0
 20
727.0
 30
0.0
 70
0
  0
VERTEX
  5
1C3
  8
0
 10
1121.0
 20
729.0
 30
0.0
 70
0
  0
VERTEX
  5
1C4
  8
0
 10
1122.0
 20
730.0
 30
0.0
 70
0
  0
VERTEX
  5
1C5
  8
0
 10
1122.0
 20
732.0
 30
0.0
 70
0
  0
VERTEX
  5
1C6
  8
0
 10
1123.0
 20
733.0
 30
0.0
 70
0
  0
VERTEX
  5
1C7
  8
0
 10
1123.0
 20
735.0
 30
0.0
 70
0
  0
VERTEX
  5
1C8
  8
0
 10
1124.0
 20
736.0
 30
0.0
 70
0
  0
VERTEX
  5
1C9
  8
0
 10
1124.0
 20
738.0
 30
0.0
 70
0
  0
VERTEX
  5
1CA
  8
0
 10
1125.0
 20
739.0
 30
0.0
 70
0
  0
VERTEX
  5
1CB
  8
0
 10
1125.0
 20
740.0
 30
0.0
 70
0
  0
VERTEX
  5
1CC
  8
0
 10
1126.0
 20
741.0
 30
0.0
 70
0
  0
VERTEX
  5
1CD
  8
0
 10
1126.0
 20
743.0
 30
0.0
 70
0
  0
VERTEX
  5
1CE
  8
0
 10
1127.0
 20
744.0
 30
0.0
 70
0
  0
VERTEX
  5
1CF
  8
0
 10
1127.0
 20
745.0
 30
0.0
 70
0
  0
VERTEX
  5
1D0
  8
0
 10
1128.0
 20
746.0
 30
0.0
 70
0
  0
VERTEX
  5
1D1
  8
0
 10
1128.0
 20
748.0
 30
0.0
 70
0
  0
VERTEX
  5
1D2
  8
0
 10
1129.0
 20
749.0
 30
0.0
 70
0
  0
VERTEX
  5
1D3
  8
0
 10
1129.0
 20
750.0
 30
0.0
 70
0
  0
VERTEX
  5
1D4
  8
0
 10
1130.0
 20
751.0
 30
0.0
 70
0
  0
VERTEX
  5
1D5
  8
0
 10
1130.0
 20
752.0
 30
0.0
 70
0
  0
VERTEX
  5
1D6
  8
0
 10
1131.0
 20
753.0
 30
0.0
 70
0
  0
VERTEX
  5
1D7
  8
0
 10
1131.0
 20
755.0
 30
0.0
 70
0
  0
VERTEX
  5
1D8
  8
0
 10
1132.0
 20
756.0
 30
0.0
 70
0
  0
VERTEX
  5
1D9
  8
0
 10
1132.0
 20
757.0
 30
0.0
 70
0
  0
VERTEX
  5
1DA
  8
0
 10
1133.0
 20
758.0
 30
0.0
 70
0
  0
VERTEX
  5
1DB
  8
0
 10
1133.0
 20
759.0
 30
0.0
 70
0
  0
VERTEX
  5
1DC
  8
0
 10
1134.0
 20
760.0
 30
0.0
 70
0
  0
VERTEX
  5
1DD
  8
0
 10
1134.0
 20
761.0
 30
0.0
 70
0
  0
VERTEX
  5
1DE
  8
0
 10
1135.0
 20
762.0
 30
0.0
 70
0
  0
VERTEX
  5
1DF
  8
0
 10
1135.0
 20
763.0
 30
0.0
 70
0
  0
VERTEX
  5
1E0
  8
0
 10
1136.0
 20
764.0
 30
0.0
 70
0
  0
VERTEX
  5
1E1
  8
0
 10
1136.0
 20
765.0
 30
0.0
 70
0
  0
VERTEX
  5
1E2
  8
0
 10
1137.0
 20
766.0
 30
0.0
 70
0
  0
VERTEX
  5
1E3
  8
0
 10
1137.0
 20
767.0
 30
0.0
 70
0
  0
VERTEX
  5
1E4
  8
0
 10
1138.0
 20
768.0
 30
0.0
 70
0
  0
VERTEX
  5
1E5
  8
0
 10
1138.0
 20
769.0
 30
0.0
 70
0
  0
VERTEX
  5
1E6
  8
0
 10
1139.0
 20
770.0
 30
0.0
 70
0
  0
VERTEX
  5
1E7
  8
0
 10
1139.0
 20
771.0
 30
0.0
 70
0
  0
VERTEX
  5
1E8
  8
0
 10
1140.0
 20
772.0
 30
0.0
 70
0
  0
VERTEX
  5
1E9
  8
0
 10
1140.0
 20
773.0
 30
0.0
 70
0
  0
VERTEX
  5
1EA
  8
0
 10
1142.0
 20
775.0
 30
0.0
 70
0
  0
VERTEX
  5
1EB
  8
0
 10
1142.0
 20
776.0
 30
0.0
 70
0
  0
VERTEX
  5
1EC
  8
0
 10
1143.0
 20
777.0
 30
0.0
 70
0
  0
VERTEX
  5
1ED
  8
0
 10
1143.0
 20
778.0
 30
0.0
 70
0
  0
VERTEX
  5
1EE
  8
0
 10
1144.0
 20
779.0
 30
0.0
 70
0
  0
VERTEX
  5
1EF
  8
0
 10
1144.0
 20
780.0
 30
0.0
 70
0
  0
VERTEX
  5
1F0
  8
0
 10
1146.0
 20
782.0
 30
0.0
 70
0
  0
VERTEX
  5
1F1
  8
0
 10
1146.0
 20
783.0
 30
0.0
 70
0
  0
VERTEX
  5
1F2
  8
0
 10
1147.0
 20
784.0
 30
0.0
 70
0
  0
VERTEX
  5
1F3
  8
0
 10
1147.0
 20
785.0
 30
0.0
 70
0
  0
VERTEX
  5
1F4
  8
0
 10
1149.0
 20
787.0
 30
0.0
 70
0
  0
VERTEX
  5
1F5
  8
0
 10
1149.0
 20
788.0
 30
0.0
 70
0
  0
VERTEX
  5
1F6
  8
0
 10
1150.0
 20
789.0
 30
0.0
 70
0
  0
VERTEX
  5
1F7
  8
0
 10
1150.0
 20
790.0
 30
0.0
 70
0
  0
VERTEX
  5
1F8
  8
0
 10
1152.0
 20
792.0
 30
0.0
 70
0
  0
VERTEX
  5
1F9
  8
0
 10
1152.0
 20
793.0
 30
0.0
 70
0
  0
VERTEX
  5
1FA
  8
0
 10
1154.0
 20
795.0
 30
0.0
 70
0
  0
VERTEX
  5
1FB
  8
0
 10
1154.0
 20
796.0
 30
0.0
 70
0
  0
VERTEX
  5
1FC
  8
0
 10
1156.0
 20
798.0
 30
0.0
 70
0
  0
VERTEX
  5
1FD
  8
0
 10
1156.0
 20
799.0
 30
0.0
 70
0
  0
VERTEX
  5
1FE
  8
0
 10
1158.0
 20
801.0
 30
0.0
 70
0
  0
VERTEX
  5
1FF
  8
0
 10
1158.0
 20
802.0
 30
0.0
 70
0
  0
VERTEX
  5
200
  8
0
 10
1160.0
 20
804.0
 30
0.0
 70
0
  0
VERTEX
  5
201
  8
0
 10
1160.0
 20
805.0
 30
0.0
 70
0
  0
VERTEX
  5
202
  8
0
 10
1162.0
 20
807.0
 30
0.0
 70
0
  0
VERTEX
  5
203
  8
0
 10
1162.0
 20
808.0
 30
0.0
 70
0
  0
VERTEX
  5
204
  8
0
 10
1165.0
 20
811.0
 30
0.0
 70
0
  0
VERTEX
  5
205
  8
0
 10
1165.0
 20
812.0
 30
0.0
 70
0
  0
VERTEX
  5
206
  8
0
 10
1167.0
 20
814.0
 30
0.0
 70
0
  0
VERTEX
  5
207
  8
0
 10
1167.0
 20
815.0
 30
0.0
 70
0
  0
VERTEX
  5
208
  8
0
 10
1170.0
 20
818.0
 30
0.0
 70
0
  0
VERTEX
  5
209
  8
0
 10
1170.0
 20
819.0
 30
0.0
 70
0
  0
VERTEX
  5
20A
  8
0
 10
1174.0
 20
823.0
 30
0.0
 70
0
  0
VERTEX
  5
20B
  8
0
 10
1174.0
 20
824.0
 30
0.0
 70
0
  0
VERTEX
  5
20C
  8
0
 10
1177.0
 20
827.0
 30
0.0
 70
0
  0
VERTEX
  5
20D
  8
0
 10
1177.0
 20
828.0
 30
0.0
 70
0
  0
VERTEX
  5
20E
  8
0
 10
1182.0
 20
833.0
 30
0.0
 70
0
  0
VERTEX
  5
20F
  8
0
 10
1182.0
 20
834.0
 30
0.0
 70
0
  0
VERTEX
  5
210
  8
0
 10
1187.0
 20
839.0
 30
0.0
 70
0
  0
VERTEX
  5
211
  8
0
 10
1187.0
 20
840.0
 30
0.0
 70
0
  0
VERTEX
  5
212
  8
0
 10
1193.0
 20
846.0
 30
0.0
 70
0
  0
VERTEX
  5
213
  8
0
 10
1193.0
 20
847.0
 30
0.0
 70
0
  0
VERTEX
  5
214
  8
0
 10
1202.0
 20
856.0
 30
0.0
 70
0
  0
VERTEX
  5
215
  8
0
 10
1202.0
 20
857.0
 30
0.0
 70
0
  0
VERTEX
  5
216
  8
0
 10
1240.0
 20
895.0
 30
0.0
 70
0
  0
VERTEX
  5
217
  8
0
 10
1241.0
 20
895.0
 30
0.0
 70
0
  0
VERTEX
  5
218
  8
0
 10
1252.0
 20
906.0
 30
0.0
 70
0
  0
VERTEX
  5
219
  8
0
 10
1253.0
 20
906.0
 30
0.0
 70
0
  0
VERTEX
  5
21A
  8
0
 10
1260.0
 20
913.0
 30
0.0
 70
0
  0
VERTEX
  5
21B
  8
0
 10
1261.0
 20
913.0
 30
0.0
 70
0
  0
VERTEX
  5
21C
  8
0
 10
1268.0
 20
920.0
 30
0.0
 70
0
  0
VERTEX
  5
21D
  8
0
 10
1269.0
 20
920.0
 30
0.0
 70
0
  0
VERTEX
  5
21E
  8
0
 10
1275.0
 20
926.0
 30
0.0
 70
0
  0
VERTEX
  5
21F
  8
0
 10
1276.0
 20
926.0
 30
0.0
 70
0
  0
VERTEX
  5
220
  8
0
 10
1281.0
 20
931.0
 30
0.0
 70
0
  0
VERTEX
  5
221
  8
0
 10
1282.0
 20
931.0
 30
0.0
 70
0
  0
VERTEX
  5
222
  8
0
 10
1286.0
 20
935.0
 30
0.0
 70
0
  0
VERTEX
  5
223
  8
0
 10
1287.0
 20
935.0
 30
0.0
 70
0
  0
VERTEX
  5
224
  8
0
 10
1292.0
 20
940.0
 30
0.0
 70
0
  0
VERTEX
  5
225
  8
0
 10
1293.0
 20
940.0
 30
0.0
 70
0
  0
VERTEX
  5
226
  8
0
 10
1297.0
 20
944.0
 30
0.0
 70
0
  0
VERTEX
  5
227
  8
0
 10
1298.0
 20
944.0
 30
0.0
 70
0
  0
VERTEX
  5
228
  8
0
 10
1302.0
 20
948.0
 30
0.0
 70
0
  0
VERTEX
  5
229
  8
0
 10
1303.0
 20
948.0
 30
0.0
 70
0
  0
VERTEX
  5
22A
  8
0
 10
1307.0
 20
952.0
 30
0.0
 70
0
  0
VERTEX
  5
22B
  8
0
 10
1308.0
 20
952.0
 30
0.0
 70
0
  0
VERTEX
  5
22C
  8
0
 10
1311.0
 20
955.0
 30
0.0
 70
0
  0
VERTEX
  5
22D
  8
0
 10
1312.0
 20
955.0
 30
0.0
 70
0
  0
VERTEX
  5
22E
  8
0
 10
1316.0
 20
959.0
 30
0.0
 70
0
  0
VERTEX
  5
22F
  8
0
 10
1317.0
 20
959.0
 30
0.0
 70
0
  0
VERTEX
  5
230
  8
0
 10
1320.0
 20
962.0
 30
0.0
 70
0
  0
VERTEX
  5
231
  8
0
 10
1321.0
 20
962.0
 30
0.0
 70
0
  0
VERTEX
  5
232
  8
0
 10
1324.0
 20
965.0
 30
0.0
 70
0
  0
VERTEX
  5
233
  8
0
 10
1325.0
 20
965.0
 30
0.0
 70
0
  0
VERTEX
  5
234
  8
0
 10
1328.0
 20
968.0
 30
0.0
 70
0
  0
VERTEX
  5
235
  8
0
 10
1329.0
 20
968.0
 30
0.0
 70
0
  0
VERTEX
  5
236
  8
0
 10
1332.0
 20
971.0
 30
0.0
 70
0
  0
VERTEX
  5
237
  8
0
 10
1333.0
 20
971.0
 30
0.0
 70
0
  0
VERTEX
  5
238
  8
0
 10
1336.0
 20
974.0
 30
0.0
 70
0
  0
VERTEX
  5
239
  8
0
 10
1337.0
 20
974.0
 30
0.0
 70
0
  0
VERTEX
  5
23A
  8
0
 10
1340.0
 20
977.0
 30
0.0
 70
0
  0
VERTEX
  5
23B
  8
0
 10
1341.0
 20
977.0
 30
0.0
 70
0
  0
VERTEX
  5
23C
  8
0
 10
1344.0
 20
980.0
 30
0.0
 70
0
  0
VERTEX
  5
23D
  8
0
 10
1345.0
 20
980.0
 30
0.0
 70
0
  0
VERTEX
  5
23E
  8
0
 10
1348.0
 20
983.0
 30
0.0
 70
0
  0
VERTEX
  5
23F
  8
0
 10
1349.0
 20
983.0
 30
0.0
 70
0
  0
VERTEX
  5
240
  8
0
 10
1351.0
 20
985.0
 30
0.0
 70
0
  0
VERTEX
  5
241
  8
0
 10
1352.0
 20
985.0
 30
0.0
 70
0
  0
VERTEX
  5
242
  8
0
 10
1355.0
 20
988.0
 30
0.0
 70
0
  0
VERTEX
  5
243
  8
0
 10
1356.0
 20
988.0
 30
0.0
 70
0
  0
VERTEX
  5
244
  8
0
 10
1359.0
 20
991.0
 30
0.0
 70
0
  0
VERTEX
  5
245
  8
0
 10
1360.0
 20
991.0
 30
0.0
 70
0
  0
VERTEX
  5
246
  8
0
 10
1362.0
 20
993.0
 30
0.0
 70
0
  0
VERTEX
  5
247
  8
0
 10
1363.0
 20
993.0
 30
0.0
 70
0
  0
VERTEX
  5
248
  8
0
 10
1366.0
 20
996.0
 30
0.0
 70
0
  0
VERTEX
  5
249
  8
0
 10
1367.0
 20
996.0
 30
0.0
 70
0
  0
VERTEX
  5
24A
  8
0
 10
1369.0
 20
998.0
 30
0.0
 70
0
  0
VERTEX
  5
24B
  8
0
 10
1370.0
 20
998.0
 30
0.0
 70
0
  0
VERTEX
  5
24C
  8
0
 10
1373.0
 20
1001.0
 30
0.0
 70
0
  0
VERTEX
  5
24D
  8
0
 10
1374.0
 20
1001.0
 30
0.0
 70
0
  0
VERTEX
  5
24E
  8
0
 10
1376.0
 20
1003.0
 30
0.0
 70
0
  0
VERTEX
  5
24F
  8
0
 10
1377.0
 20
1003.0
 30
0.0
 70
0
  0
VERTEX
  5
250
  8
0
 10
1379.0
 20
1005.0
 30
0.0
 70
0
  0
VERTEX
  5
251
  8
0
 10
1380.0
 20
1005.0
 30
0.0
 70
0
  0
VERTEX
  5
252
  8
0
 10
1383.0
 20
1008.0
 30
0.0
 70
0
  0
VERTEX
  5
253
  8
0
 10
1384.0
 20
1008.0
 30
0.0
 70
0
  0
VERTEX
  5
254
  8
0
 10
1386.0
 20
1010.0
 30
0.0
 70
0
  0
VERTEX
  5
255
  8
0
 10
1387.0
 20
1010.0
 30
0.0
 70
0
  0
VERTEX
  5
256
  8
0
 10
1389.0
 20
1012.0
 30
0.0
 70
0
  0
VERTEX
  5
257
  8
0
 10
1390.0
 20
1012.0
 30
0.0
 70
0
  0
VERTEX
  5
258
  8
0
 10
1392.0
 20
1014.0
 30
0.0
 70
0
  0
VERTEX
  5
259
  8
0
 10
1393.0
 20
1014.0
 30
0.0
 70
0
  0
VERTEX
  5
25A
  8
0
 10
1395.0
 20
1016.0
 30
0.0
 70
0
  0
VERTEX
  5
25B
  8
0
 10
1396.0
 20
1016.0
 30
0.0
 70
0
  0
VERTEX
  5
25C
  8
0
 10
1399.0
 20
1019.0
 30
0.0
 70
0
  0
VERTEX
  5
25D
  8
0
 10
1400.0
 20
1019.0
 30
0.0
 70
0
  0
VERTEX
  5
25E
  8
0
 10
1402.0
 20
1021.0
 30
0.0
 70
0
  0
VERTEX
  5
25F
  8
0
 10
1403.0
 20
1021.0
 30
0.0
 70
0
  0
VERTEX
  5
260
  8
0
 10
1405.0
 20
1023.0
 30
0.0
 70
0
  0
VERTEX
  5
261
  8
0
 10
1406.0
 20
1023.0
 30
0.0
 70
0
  0
VERTEX
  5
262
  8
0
 10
1408.0
 20
1025.0
 30
0.0
 70
0
  0
VERTEX
  5
263
  8
0
 10
1409.0
 20
1025.0
 30
0.0
 70
0
  0
VERTEX
  5
264
  8
0
 10
1411.0
 20
1027.0
 30
0.0
 70
0
  0
VERTEX
  5
265
  8
0
 10
1412.0
 20
1027.0
 30
0.0
 70
0
  0
VERTEX
  5
266
  8
0
 10
1414.0
 20
1029.0
 30
0.0
 70
0
  0
VERTEX
  5
267
  8
0
 10
1415.0
 20
1029.0
 30
0.0
 70
0
  0
VERTEX
  5
268
  8
0
 10
1417.0
 20
1031.0
 30
0.0
 70
0
  0
VERTEX
  5
269
  8
0
 10
1418.0
 20
1031.0
 30
0.0
 70
0
  0
VERTEX
  5
26A
  8
0
 10
1420.0
 20
1033.0
 30
0.0
 70
0
  0
VERTEX
  5
26B
  8
0
 10
1421.0
 20
1033.0
 30
0.0
 70
0
  0
VERTEX
  5
26C
  8
0
 10
1423.0
 20
1035.0
 30
0.0
 70
0
  0
VERTEX
  5
26D
  8
0
 10
1424.0
 20
1035.0
 30
0.0
 70
0
  0
VERTEX
  5
26E
  8
0
 10
1426.0
 20
1037.0
 30
0.0
 70
0
  0
VERTEX
  5
26F
  8
0
 10
1427.0
 20
1037.0
 30
0.0
 70
0
  0
VERTEX
  5
270
  8
0
 10
1429.0
 20
1039.0
 30
0.0
 70
0
  0
VERTEX
  5
271
  8
0
 10
1430.0
 20
1039.0
 30
0.0
 70
0
  0
VERTEX
  5
272
  8
0
 10
1432.0
 20
1041.0
 30
0.0
 70
0
  0
VERTEX
  5
273
  8
0
 10
1433.0
 20
1041.0
 30
0.0
 70
0
  0
VERTEX
  5
274
  8
0
 10
1435.0
 20
1043.0
 30
0.0
 70
0
  0
VERTEX
  5
275
  8
0
 10
1436.0
 20
1043.0
 30
0.0
 70
0
  0
VERTEX
  5
276
  8
0
 10
1438.0
 20
1045.0
 30
0.0
 70
0
  0
VERTEX
  5
277
  8
0
 10
1439.0
 20
1045.0
 30
0.0
 70
0
  0
VERTEX
  5
278
  8
0
 10
1440.0
 20
1046.0
 30
0.0
 70
0
  0
VERTEX
  5
279
  8
0
 10
1441.0
 20
1046.0
 30
0.0
 70
0
  0
VERTEX
  5
27A
  8
0
 10
1443.0
 20
1048.0
 30
0.0
 70
0
  0
VERTEX
  5
27B
  8
0
 10
1444.0
 20
1048.0
 30
0.0
 70
0
  0
VERTEX
  5
27C
  8
0
 10
1446.0
 20
1050.0
 30
0.0
 70
0
  0
VERTEX
  5
27D
  8
0
 10
1447.0
 20
1050.0
 30
0.0
 70
0
  0
VERTEX
  5
27E
  8
0
 10
1449.0
 20
1052.0
 30
0.0
 70
0
  0
VERTEX
  5
27F
  8
0
 10
1450.0
 20
1052.0
 30
0.0
 70
0
  0
VERTEX
  5
280
  8
0
 10
1452.0
 20
1054.0
 30
0.0
 70
0
  0
VERTEX
  5
281
  8
0
 10
1453.0
 20
1054.0
 30
0.0
 70
0
  0
VERTEX
  5
282
  8
0
 10
1454.0
 20
1055.0
 30
0.0
 70
0
  0
VERTEX
  5
283
  8
0
 10
1455.0
 20
1055.0
 30
0.0
 70
0
  0
VERTEX
  5
284
  8
0
 10
1457.0
 20
1057.0
 30
0.0
 70
0
  0
VERTEX
  5
285
  8
0
 10
1458.0
 20
1057.0
 30
0.0
 70
0
  0
VERTEX
  5
286
  8
0
 10
1460.0
 20
1059.0
 30
0.0
 70
0
  0
VERTEX
  5
287
  8
0
 10
1461.0
 20
1059.0
 30
0.0
 70
0
  0
VERTEX
  5
288
  8
0
 10
1463.0
 20
1061.0
 30
0.0
 70
0
  0
VERTEX
  5
289
  8
0
 10
1464.0
 20
1061.0
 30
0.0
 70
0
  0
VERTEX
  5
28A
  8
0
 10
1466.0
 20
1063.0
 30
0.0
 70
0
  0
VERTEX
  5
28B
  8
0
 10
1467.0
 20
1063.0
 30
0.0
 70
0
  0
VERTEX
  5
28C
  8
0
 10
1468.0
 20
1064.0
 30
0.0
 70
0
  0
VERTEX
  5
28D
  8
0
 10
1469.0
 20
1064.0
 30
0.0
 70
0
  0
VERTEX
  5
28E
  8
0
 10
1471.0
 20
1066.0
 30
0.0
 70
0
  0
VERTEX
  5
28F
  8
0
 10
1472.0
 20
1066.0
 30
0.0
 70
0
  0
VERTEX
  5
290
  8
0
 10
1474.0
 20
1068.0
 30
0.0
 70
0
  0
VERTEX
  5
291
  8
0
 10
1475.0
 20
1068.0
 30
0.0
 70
0
  0
VERTEX
  5
292
  8
0
 10
1476.0
 20
1069.0
 30
0.0
 70
0
  0
VERTEX
  5
293
  8
0
 10
1477.0
 20
1069.0
 30
0.0
 70
0
  0
VERTEX
  5
294
  8
0
 10
1479.0
 20
1071.0
 30
0.0
 70
0
  0
VERTEX
  5
295
  8
0
 10
1480.0
 20
1071.0
 30
0.0
 70
0
  0
VERTEX
  5
296
  8
0
 10
1482.0
 20
1073.0
 30
0.0
 70
0
  0
VERTEX
  5
297
  8
0
 10
1483.0
 20
1073.0
 30
0.0
 70
0
  0
VERTEX
  5
298
  8
0
 10
1484.0
 20
1074.0
 30
0.0
 70
0
  0
VERTEX
  5
299
  8
0
 10
1485.0
 20
1074.0
 30
0.0
 70
0
  0
VERTEX
  5
29A
  8
0
 10
1487.0
 20
1076.0
 30
0.0
 70
0
  0
VERTEX
  5
29B
  8
0
 10
1488.0
 20
1076.0
 30
0.0
 70
0
  0
VERTEX
  5
29C
  8
0
 10
1490.0
 20
1078.0
 30
0.0
 70
0
  0
VERTEX
  5
29D
  8
0
 10
1491.0
 20
1078.0
 30
0.0
 70
0
  0
VERTEX
  5
29E
  8
0
 10
1492.0
 20
1079.0
 30
0.0
 70
0
  0
VERTEX
  5
29F
  8
0
 10
1493.0
 20
1079.0
 30
0.0
 70
0
  0
VERTEX
  5
2A0
  8
0
 10
1495.0
 20
1081.0
 30
0.0
 70
0
  0
VERTEX
  5
2A1
  8
0
 10
1496.0
 20
1081.0
 30
0.0
 70
0
  0
VERTEX
  5
2A2
  8
0
 10
1498.0
 20
1083.0
 30
0.0
 70
0
  0
VERTEX
  5
2A3
  8
0
 10
1499.0
 20
1083.0
 30
0.0
 70
0
  0
VERTEX
  5
2A4
  8
0
 10
1500.0
 20
1084.0
 30
0.0
 70
0
  0
VERTEX
  5
2A5
  8
0
 10
1501.0
 20
1084.0
 30
0.0
 70
0
  0
VERTEX
  5
2A6
  8
0
 10
1503.0
 20
1086.0
 30
0.0
 70
0
  0
VERTEX
  5
2A7
  8
0
 10
1504.0
 20
1086.0
 30
0.0
 70
0
  0
VERTEX
  5
2A8
  8
0
 10
1505.0
 20
1087.0
 30
0.0
 70
0
  0
VERTEX
  5
2A9
  8
0
 10
1506.0
 20
1087.0
 30
0.0
 70
0
  0
VERTEX
  5
2AA
  8
0
 10
1508.0
 20
1089.0
 30
0.0
 70
0
  0
VERTEX
  5
2AB
  8
0
 10
1509.0
 20
1089.0
 30
0.0
 70
0
  0
VERTEX
  5
2AC
  8
0
 10
1511.0
 20
1091.0
 30
0.0
 70
0
  0
VERTEX
  5
2AD
  8
0
 10
1512.0
 20
1091.0
 30
0.0
 70
0
  0
VERTEX
  5
2AE
  8
0
 10
1513.0
 20
1092.0
 30
0.0
 70
0
  0
VERTEX
  5
2AF
  8
0
 10
1514.0
 20
1092.0
 30
0.0
 70
0
  0
VERTEX
  5
2B0
  8
0
 10
1516.0
 20
1094.0
 30
0.0
 70
0
  0
VERTEX
  5
2B1
  8
0
 10
1517.0
 20
1094.0
 30
0.0
 70
0
  0
VERTEX
  5
2B2
  8
0
 10
1518.0
 20
1095.0
 30
0.0
 70
0
  0
VERTEX
  5
2B3
  8
0
 10
1519.0
 20
1095.0
 30
0.0
 70
0
  0
VERTEX
  5
2B4
  8
0
 10
1521.0
 20
1097.0
 30
0.0
 70
0
  0
VERTEX
  5
2B5
  8
0
 10
1522.0
 20
1097.0
 30
0.0
 70
0
  0
VERTEX
  5
2B6
  8
0
 10
1523.0
 20
1098.0
 30
0.0
 70
0
  0
VERTEX
  5
2B7
  8
0
 10
1524.0
 20
1098.0
 30
0.0
 70
0
  0
VERTEX
  5
2B8
  8
0
 10
1526.0
 20
1100.0
 30
0.0
 70
0
  0
VERTEX
  5
2B9
  8
0
 10
1527.0
 20
1100.0
 30
0.0
 70
0
  0
VERTEX
  5
2BA
  8
0
 10
1528.0
 20
1101.0
 30
0.0
 70
0
  0
VERTEX
  5
2BB
  8
0
 10
1529.0
 20
1101.0
 30
0.0
 70
0
  0
VERTEX
  5
2BC
  8
0
 10
1531.0
 20
1103.0
 30
0.0
 70
0
  0
VERTEX
  5
2BD
  8
0
 10
1532.0
 20
1103.0
 30
0.0
 70
0
  0
VERTEX
  5
2BE
  8
0
 10
1533.0
 20
1104.0
 30
0.0
 70
0
  0
VERTEX
  5
2BF
  8
0
 10
1534.0
 20
1104.0
 30
0.0
 70
0
  0
VERTEX
  5
2C0
  8
0
 10
1536.0
 20
1106.0
 30
0.0
 70
0
  0
VERTEX
  5
2C1
  8
0
 10
1537.0
 20
1106.0
 30
0.0
 70
0
  0
VERTEX
  5
2C2
  8
0
 10
1538.0
 20
1107.0
 30
0.0
 70
0
  0
VERTEX
  5
2C3
  8
0
 10
1539.0
 20
1107.0
 30
0.0
 70
0
  0
VERTEX
  5
2C4
  8
0
 10
1541.0
 20
1109.0
 30
0.0
 70
0
  0
VERTEX
  5
2C5
  8
0
 10
1542.0
 20
1109.0
 30
0.0
 70
0
  0
VERTEX
  5
2C6
  8
0
 10
1543.0
 20
1110.0
 30
0.0
 70
0
  0
VERTEX
  5
2C7
  8
0
 10
1544.0
 20
1110.0
 30
0.0
 70
0
  0
VERTEX
  5
2C8
  8
0
 10
1546.0
 20
1112.0
 30
0.0
 70
0
  0
VERTEX
  5
2C9
  8
0
 10
1547.0
 20
1112.0
 30
0.0
 70
0
  0
VERTEX
  5
2CA
  8
0
 10
1548.0
 20
1113.0
 30
0.0
 70
0
  0
VERTEX
  5
2CB
  8
0
 10
1549.0
 20
1113.0
 30
0.0
 70
0
  0
VERTEX
  5
2CC
  8
0
 10
1551.0
 20
1115.0
 30
0.0
 70
0
  0
VERTEX
  5
2CD
  8
0
 10
1552.0
 20
1115.0
 30
0.0
 70
0
  0
VERTEX
  5
2CE
  8
0
 10
1553.0
 20
1116.0
 30
0.0
 70
0
  0
VERTEX
  5
2CF
  8
0
 10
1554.0
 20
1116.0
 30
0.0
 70
0
  0
VERTEX
  5
2D0
  8
0
 10
1556.0
 20
1118.0
 30
0.0
 70
0
  0
VERTEX
  5
2D1
  8
0
 10
1557.0
 20
1118.0
 30
0.0
 70
0
  0
VERTEX
  5
2D2
  8
0
 10
1558.0
 20
1119.0
 30
0.0
 70
0
  0
VERTEX
  5
2D3
  8
0
 10
1559.0
 20
1119.0
 30
0.0
 70
0
  0
VERTEX
  5
2D4
  8
0
 10
1561.0
 20
1121.0
 30
0.0
 70
0
  0
VERTEX
  5
2D5
  8
0
 10
1562.0
 20
1121.0
 30
0.0
 70
0
  0
VERTEX
  5
2D6
  8
0
 10
1563.0
 20
1122.0
 30
0.0
 70
0
  0
VERTEX
  5
2D7
  8
0
 10
1564.0
 20
1122.0
 30
0.0
 70
0
  0
VERTEX
  5
2D8
  8
0
 10
1565.0
 20
1123.0
 30
0.0
 70
0
  0
VERTEX
  5
2D9
  8
0
 10
1566.0
 20
1123.0
 30
0.0
 70
0
  0
VERTEX
  5
2DA
  8
0
 10
1568.0
 20
1125.0
 30
0.0
 70
0
  0
VERTEX
  5
2DB
  8
0
 10
1569.0
 20
1125.0
 30
0.0
 70
0
  0
VERTEX
  5
2DC
  8
0
 10
1570.0
 20
1126.0
 30
0.0
 70
0
  0
VERTEX
  5
2DD
  8
0
 10
1571.0
 20
1126.0
 30
0.0
 70
0
  0
VERTEX
  5
2DE
  8
0
 10
1573.0
 20
1128.0
 30
0.0
 70
0
  0
VERTEX
  5
2DF
  8
0
 10
1574.0
 20
1128.0
 30
0.0
 70
0
  0
VERTEX
  5
2E0
  8
0
 10
1575.0
 20
1129.0
 30
0.0
 70
0
  0
VERTEX
  5
2E1
  8
0
 10
1576.0
 20
1129.0
 30
0.0
 70
0
  0
VERTEX
  5
2E2
  8
0
 10
1577.0
 20
1130.0
 30
0.0
 70
0
  0
VERTEX
  5
2E3
  8
0
 10
1578.0
 20
1130.0
 30
0.0
 70
0
  0
VERTEX
  5
2E4
  8
0
 10
1580.0
 20
1132.0
 30
0.0
 70
0
  0
VERTEX
  5
2E5
  8
0
 10
1581.0
 20
1132.0
 30
0.0
 70
0
  0
VERTEX
  5
2E6
  8
0
 10
1582.0
 20
1133.0
 30
0.0
 70
0
  0
VERTEX
  5
2E7
  8
0
 10
1583.0
 20
1133.0
 30
0.0
 70
0
  0
VERTEX
  5
2E8
  8
0
 10
1585.0
 20
1135.0
 30
0.0
 70
0
  0
VERTEX
  5
2E9
  8
0
 10
1586.0
 20
1135.0
 30
0.0
 70
0
  0
VERTEX
  5
2EA
  8
0
 10
1587.0
 20
1136.0
 30
0.0
 70
0
  0
VERTEX
  5
2EB
  8
0
 10
1588.0
 20
1136.0
 30
0.0
 70
0
  0
VERTEX
  5
2EC
  8
0
 10
1589.0
 20
1137.0
 30
0.0
 70
0
  0
VERTEX
  5
2ED
  8
0
 10
1590.0
 20
1137.0
 30
0.0
 70
0
  0
VERTEX
  5
2EE
  8
0
 10
1592.0
 20
1139.0
 30
0.0
 70
0
  0
VERTEX
  5
2EF
  8
0
 10
1593.0
 20
1139.0
 30
0.0
 70
0
  0
VERTEX
  5
2F0
  8
0
 10
1594.0
 20
1140.0
 30
0.0
 70
0
  0
VERTEX
  5
2F1
  8
0
 10
1595.0
 20
1140.0
 30
0.0
 70
0
  0
VERTEX
  5
2F2
  8
0
 10
1596.0
 20
1141.0
 30
0.0
 70
0
  0
VERTEX
  5
2F3
  8
0
 10
1597.0
 20
1141.0
 30
0.0
 70
0
  0
VERTEX
  5
2F4
  8
0
 10
1599.0
 20
1143.0
 30
0.0
 70
0
  0
VERTEX
  5
2F5
  8
0
 10
1600.0
 20
1143.0
 30
0.0
 70
0
  0
VERTEX
  5
2F6
  8
0
 10
1601.0
 20
1144.0
 30
0.0
 70
0
  0
VERTEX
  5
2F7
  8
0
 10
1602.0
 20
1144.0
 30
0.0
 70
0
  0
VERTEX
  5
2F8
  8
0
 10
1604.0
 20
1146.0
 30
0.0
 70
0
  0
VERTEX
  5
2F9
  8
0
 10
1605.0
 20
1146.0
 30
0.0
 70
0
  0
VERTEX
  5
2FA
  8
0
 10
1606.0
 20
1147.0
 30
0.0
 70
0
  0
VERTEX
  5
2FB
  8
0
 10
1607.0
 20
1147.0
 30
0.0
 70
0
  0
VERTEX
  5
2FC
  8
0
 10
1608.0
 20
1148.0
 30
0.0
 70
0
  0
VERTEX
  5
2FD
  8
0
 10
1609.0
 20
1148.0
 30
0.0
 70
0
  0
VERTEX
  5
2FE
  8
0
 10
1611.0
 20
1150.0
 30
0.0
 70
0
  0
VERTEX
  5
2FF
  8
0
 10
1612.0
 20
1150.0
 30
0.0
 70
0
  0
VERTEX
  5
300
  8
0
 10
1613.0
 20
1151.0
 30
0.0
 70
0
  0
VERTEX
  5
301
  8
0
 10
1614.0
 20
1151.0
 30
0.0
 70
0
  0
VERTEX
  5
302
  8
0
 10
1615.0
 20
1152.0
 30
0.0
 70
0
  0
VERTEX
  5
303
  8
0
 10
1616.0
 20
1152.0
 30
0.0
 70
0
  0
VERTEX
  5
304
  8
0
 10
1618.0
 20
1154.0
 30
0.0
 70
0
  0
VERTEX
  5
305
  8
0
 10
1619.0
 20
1154.0
 30
0.0
 70
0
  0
VERTEX
  5
306
  8
0
 10
1620.0
 20
1155.0
 30
0.0
 70
0
  0
VERTEX
  5
307
  8
0
 10
1621.0
 20
1155.0
 30
0.0
 70
0
  0
VERTEX
  5
308
  8
0
 10
1622.0
 20
1156.0
 30
0.0
 70
0
  0
VERTEX
  5
309
  8
0
 10
1623.0
 20
1156.0
 30
0.0
 70
0
  0
VERTEX
  5
30A
  8
0
 10
1625.0
 20
1158.0
 30
0.0
 70
0
  0
VERTEX
  5
30B
  8
0
 10
1626.0
 20
1158.0
 30
0.0
 70
0
  0
VERTEX
  5
30C
  8
0
 10
1627.0
 20
1159.0
 30
0.0
 70
0
  0
VERTEX
  5
30D
  8
0
 10
1628.0
 20
1159.0
 30
0.0
 70
0
  0
VERTEX
  5
30E
  8
0
 10
1629.0
 20
1160.0
 30
0.0
 70
0
  0
VERTEX
  5
30F
  8
0
 10
1630.0
 20
1160.0
 30
0.0
 70
0
  0
VERTEX
  5
310
  8
0
 10
1631.0
 20
1161.0
 30
0.0
 70
0
  0
VERTEX
  5
311
  8
0
 10
1632.0
 20
1161.0
 30
0.0
 70
0
  0
VERTEX
  5
312
  8
0
 10
1634.0
 20
1163.0
 30
0.0
 70
0
  0
VERTEX
  5
313
  8
0
 10
1635.0
 20
1163.0
 30
0.0
 70
0
  0
VERTEX
  5
314
  8
0
 10
1636.0
 20
1164.0
 30
0.0
 70
0
  0
VERTEX
  5
315
  8
0
 10
1637.0
 20
1164.0
 30
0.0
 70
0
  0
VERTEX
  5
316
  8
0
 10
1638.0
 20
1165.0
 30
0.0
 70
0
  0
VERTEX
  5
317
  8
0
 10
1639.0
 20
1165.0
 30
0.0
 70
0
  0
VERTEX
  5
318
  8
0
 10
1641.0
 20
1167.0
 30
0.0
 70
0
  0
VERTEX
  5
319
  8
0
 10
1642.0
 20
1167.0
 30
0.0
 70
0
  0
VERTEX
  5
31A
  8
0
 10
1643.0
 20
1168.0
 30
0.0
 70
0
  0
VERTEX
  5
31B
  8
0
 10
1644.0
 20
1168.0
 30
0.0
 70
0
  0
VERTEX
  5
31C
  8
0
 10
1645.0
 20
1169.0
 30
0.0
 70
0
  0
VERTEX
  5
31D
  8
0
 10
1646.0
 20
1169.0
 30
0.0
 70
0
  0
VERTEX
  5
31E
  8
0
 10
1647.0
 20
1170.0
 30
0.0
 70
0
  0
VERTEX
  5
31F
  8
0
 10
1648.0
 20
1170.0
 30
0.0
 70
0
  0
VERTEX
  5
320
  8
0
 10
1650.0
 20
1172.0
 30
0.0
 70
0
  0
VERTEX
  5
321
  8
0
 10
1651.0
 20
1172.0
 30
0.0
 70
0
  0
VERTEX
  5
322
  8
0
 10
1652.0
 20
1173.0
 30
0.0
 70
0
  0
VERTEX
  5
323
  8
0
 10
1653.0
 20
1173.0
 30
0.0
 70
0
  0
VERTEX
  5
324
  8
0
 10
1654.0
 20
1174.0
 30
0.0
 70
0
  0
VERTEX
  5
325
  8
0
 10
1655.0
 20
1174.0
 30
0.0
 70
0
  0
VERTEX
  5
326
  8
0
 10
1657.0
 20
1176.0
 30
0.0
 70
0
  0
VERTEX
  5
327
  8
0
 10
1658.0
 20
1176.0
 30
0.0
 70
0
  0
VERTEX
  5
328
  8
0
 10
1659.0
 20
1177.0
 30
0.0
 70
0
  0
VERTEX
  5
329
  8
0
 10
1660.0
 20
1177.0
 30
0.0
 70
0
  0
VERTEX
  5
32A
  8
0
 10
1661.0
 20
1178.0
 30
0.0
 70
0
  0
VERTEX
  5
32B
  8
0
 10
1662.0
 20
1178.0
 30
0.0
 70
0
  0
VERTEX
  5
32C
  8
0
 10
1663.0
 20
1179.0
 30
0.0
 70
0
  0
VERTEX
  5
32D
  8
0
 10
1664.0
 20
1179.0
 30
0.0
 70
0
  0
VERTEX
  5
32E
  8
0
 10
1666.0
 20
1181.0
 30
0.0
 70
0
  0
VERTEX
  5
32F
  8
0
 10
1666.0
 20
1049.0
 30
0.0
 70
0
  0
VERTEX
  5
330
  8
0
 10
1663.0
 20
1046.0
 30
0.0
 70
0
  0
VERTEX
  5
331
  8
0
 10
1662.0
 20
1046.0
 30
0.0
 70
0
  0
VERTEX
  5
332
  8
0
 10
1659.0
 20
1043.0
 30
0.0
 70
0
  0
VERTEX
  5
333
  8
0
 10
1658.0
 20
1043.0
 30
0.0
 70
0
  0
VERTEX
  5
334
  8
0
 10
1655.0
 20
1040.0
 30
0.0
 70
0
  0
VERTEX
  5
335
  8
0
 10
1654.0
 20
1040.0
 30
0.0
 70
0
  0
VERTEX
  5
336
  8
0
 10
1650.0
 20
1036.0
 30
0.0
 70
0
  0
VERTEX
  5
337
  8
0
 10
1649.0
 20
1036.0
 30
0.0
 70
0
  0
VERTEX
  5
338
  8
0
 10
1646.0
 20
1033.0
 30
0.0
 70
0
  0
VERTEX
  5
339
  8
0
 10
1645.0
 20
1033.0
 30
0.0
 70
0
  0
VERTEX
  5
33A
  8
0
 10
1642.0
 20
1030.0
 30
0.0
 70
0
  0
VERTEX
  5
33B
  8
0
 10
1641.0
 20
1030.0
 30
0.0
 70
0
  0
VERTEX
  5
33C
  8
0
 10
1637.0
 20
1026.0
 30
0.0
 70
0
  0
VERTEX
  5
33D
  8
0
 10
1636.0
 20
1026.0
 30
0.0
 70
0
  0
VERTEX
  5
33E
  8
0
 10
1633.0
 20
1023.0
 30
0.0
 70
0
  0
VERTEX
  5
33F
  8
0
 10
1632.0
 20
1023.0
 30
0.0
 70
0
  0
VERTEX
  5
340
  8
0
 10
1628.0
 20
1019.0
 30
0.0
 70
0
  0
VERTEX
  5
341
  8
0
 10
1627.0
 20
1019.0
 30
0.0
 70
0
  0
VERTEX
  5
342
  8
0
 10
1623.0
 20
1015.0
 30
0.0
 70
0
  0
VERTEX
  5
343
  8
0
 10
1622.0
 20
1015.0
 30
0.0
 70
0
  0
VERTEX
  5
344
  8
0
 10
1618.0
 20
1011.0
 30
0.0
 70
0
  0
VERTEX
  5
345
  8
0
 10
1617.0
 20
1011.0
 30
0.0
 70
0
  0
VERTEX
  5
346
  8
0
 10
1612.0
 20
1006.0
 30
0.0
 70
0
  0
VERTEX
  5
347
  8
0
 10
1611.0
 20
1006.0
 30
0.0
 70
0
  0
VERTEX
  5
348
  8
0
 10
1607.0
 20
1002.0
 30
0.0
 70
0
  0
VERTEX
  5
349
  8
0
 10
1606.0
 20
1002.0
 30
0.0
 70
0
  0
VERTEX
  5
34A
  8
0
 10
1601.0
 20
997.0
 30
0.0
 70
0
  0
VERTEX
  5
34B
  8
0
 10
1600.0
 20
997.0
 30
0.0
 70
0
  0
VERTEX
  5
34C
  8
0
 10
1595.0
 20
992.0
 30
0.0
 70
0
  0
VERTEX
  5
34D
  8
0
 10
1594.0
 20
992.0
 30
0.0
 70
0
  0
VERTEX
  5
34E
  8
0
 10
1588.0
 20
986.0
 30
0.0
 70
0
  0
VERTEX
  5
34F
  8
0
 10
1587.0
 20
986.0
 30
0.0
 70
0
  0
VERTEX
  5
350
  8
0
 10
1581.0
 20
980.0
 30
0.0
 70
0
  0
VERTEX
  5
351
  8
0
 10
1580.0
 20
980.0
 30
0.0
 70
0
  0
VERTEX
  5
352
  8
0
 10
1573.0
 20
973.0
 30
0.0
 70
0
  0
VERTEX
  5
353
  8
0
 10
1572.0
 20
973.0
 30
0.0
 70
0
  0
VERTEX
  5
354
  8
0
 10
1564.0
 20
965.0
 30
0.0
 70
0
  0
VERTEX
  5
355
  8
0
 10
1563.0
 20
965.0
 30
0.0
 70
0
  0
VERTEX
  5
356
  8
0
 10
1553.0
 20
955.0
 30
0.0
 70
0
  0
VERTEX
  5
357
  8
0
 10
1552.0
 20
955.0
 30
0.0
 70
0
  0
VERTEX
  5
358
  8
0
 10
1531.0
 20
934.0
 30
0.0
 70
0
  0
VERTEX
  5
359
  8
0
 10
1530.0
 20
934.0
 30
0.0
 70
0
  0
VERTEX
  5
35A
  8
0
 10
1520.0
 20
924.0
 30
0.0
 70
0
  0
VERTEX
  5
35B
  8
0
 10
1520.0
 20
923.0
 30
0.0
 70
0
  0
VERTEX
  5
35C
  8
0
 10
1501.0
 20
904.0
 30
0.0
 70
0
  0
VERTEX
  5
35D
  8
0
 10
1501.0
 20
903.0
 30
0.0
 70
0
  0
VERTEX
  5
35E
  8
0
 10
1491.0
 20
893.0
 30
0.0
 70
0
  0
VERTEX
  5
35F
  8
0
 10
1491.0
 20
892.0
 30
0.0
 70
0
  0
VERTEX
  5
360
  8
0
 10
1485.0
 20
886.0
 30
0.0
 70
0
  0
VERTEX
  5
361
  8
0
 10
1485.0
 20
885.0
 30
0.0
 70
0
  0
VERTEX
  5
362
  8
0
 10
1479.0
 20
879.0
 30
0.0
 70
0
  0
VERTEX
  5
363
  8
0
 10
1479.0
 20
878.0
 30
0.0
 70
0
  0
VERTEX
  5
364
  8
0
 10
1474.0
 20
873.0
 30
0.0
 70
0
  0
VERTEX
  5
365
  8
0
 10
1474.0
 20
872.0
 30
0.0
 70
0
  0
VERTEX
  5
366
  8
0
 10
1470.0
 20
868.0
 30
0.0
 70
0
  0
VERTEX
  5
367
  8
0
 10
1470.0
 20
867.0
 30
0.0
 70
0
  0
VERTEX
  5
368
  8
0
 10
1467.0
 20
864.0
 30
0.0
 70
0
  0
VERTEX
  5
369
  8
0
 10
1467.0
 20
863.0
 30
0.0
 70
0
  0
VERTEX
  5
36A
  8
0
 10
1463.0
 20
859.0
 30
0.0
 70
0
  0
VERTEX
  5
36B
  8
0
 10
1463.0
 20
858.0
 30
0.0
 70
0
  0
VERTEX
  5
36C
  8
0
 10
1460.0
 20
855.0
 30
0.0
 70
0
  0
VERTEX
  5
36D
  8
0
 10
1460.0
 20
854.0
 30
0.0
 70
0
  0
VERTEX
  5
36E
  8
0
 10
1457.0
 20
851.0
 30
0.0
 70
0
  0
VERTEX
  5
36F
  8
0
 10
1457.0
 20
850.0
 30
0.0
 70
0
  0
VERTEX
  5
370
  8
0
 10
1454.0
 20
847.0
 30
0.0
 70
0
  0
VERTEX
  5
371
  8
0
 10
1454.0
 20
846.0
 30
0.0
 70
0
  0
VERTEX
  5
372
  8
0
 10
1452.0
 20
844.0
 30
0.0
 70
0
  0
VERTEX
  5
373
  8
0
 10
1452.0
 20
843.0
 30
0.0
 70
0
  0
VERTEX
  5
374
  8
0
 10
1450.0
 20
841.0
 30
0.0
 70
0
  0
VERTEX
  5
375
  8
0
 10
1450.0
 20
840.0
 30
0.0
 70
0
  0
VERTEX
  5
376
  8
0
 10
1447.0
 20
837.0
 30
0.0
 70
0
  0
VERTEX
  5
377
  8
0
 10
1447.0
 20
836.0
 30
0.0
 70
0
  0
VERTEX
  5
378
  8
0
 10
1445.0
 20
834.0
 30
0.0
 70
0
  0
VERTEX
  5
379
  8
0
 10
1445.0
 20
833.0
 30
0.0
 70
0
  0
VERTEX
  5
37A
  8
0
 10
1443.0
 20
831.0
 30
0.0
 70
0
  0
VERTEX
  5
37B
  8
0
 10
1443.0
 20
830.0
 30
0.0
 70
0
  0
VERTEX
  5
37C
  8
0
 10
1441.0
 20
828.0
 30
0.0
 70
0
  0
VERTEX
  5
37D
  8
0
 10
1441.0
 20
827.0
 30
0.0
 70
0
  0
VERTEX
  5
37E
  8
0
 10
1439.0
 20
825.0
 30
0.0
 70
0
  0
VERTEX
  5
37F
  8
0
 10
1439.0
 20
824.0
 30
0.0
 70
0
  0
VERTEX
  5
380
  8
0
 10
1438.0
 20
823.0
 30
0.0
 70
0
  0
VERTEX
  5
381
  8
0
 10
1438.0
 20
822.0
 30
0.0
 70
0
  0
VERTEX
  5
382
  8
0
 10
1436.0
 20
820.0
 30
0.0
 70
0
  0
VERTEX
  5
383
  8
0
 10
1436.0
 20
819.0
 30
0.0
 70
0
  0
VERTEX
  5
384
  8
0
 10
1434.0
 20
817.0
 30
0.0
 70
0
  0
VERTEX
  5
385
  8
0
 10
1434.0
 20
816.0
 30
0.0
 70
0
  0
VERTEX
  5
386
  8
0
 10
1433.0
 20
815.0
 30
0.0
 70
0
  0
VERTEX
  5
387
  8
0
 10
1433.0
 20
814.0
 30
0.0
 70
0
  0
VERTEX
  5
388
  8
0
 10
1431.0
 20
812.0
 30
0.0
 70
0
  0
VERTEX
  5
389
  8
0
 10
1431.0
 20
811.0
 30
0.0
 70
0
  0
VERTEX
  5
38A
  8
0
 10
1430.0
 20
810.0
 30
0.0
 70
0
  0
VERTEX
  5
38B
  8
0
 10
1430.0
 20
809.0
 30
0.0
 70
0
  0
VERTEX
  5
38C
  8
0
 10
1429.0
 20
808.0
 30
0.0
 70
0
  0
VERTEX
  5
38D
  8
0
 10
1429.0
 20
807.0
 30
0.0
 70
0
  0
VERTEX
  5
38E
  8
0
 10
1427.0
 20
805.0
 30
0.0
 70
0
  0
VERTEX
  5
38F
  8
0
 10
1427.0
 20
804.0
 30
0.0
 70
0
  0
VERTEX
  5
390
  8
0
 10
1426.0
 20
803.0
 30
0.0
 70
0
  0
VERTEX
  5
391
  8
0
 10
1426.0
 20
802.0
 30
0.0
 70
0
  0
VERTEX
  5
392
  8
0
 10
1425.0
 20
801.0
 30
0.0
 70
0
  0
VERTEX
  5
393
  8
0
 10
1425.0
 20
800.0
 30
0.0
 70
0
  0
VERTEX
  5
394
  8
0
 10
1424.0
 20
799.0
 30
0.0
 70
0
  0
VERTEX
  5
395
  8
0
 10
1424.0
 20
798.0
 30
0.0
 70
0
  0
VERTEX
  5
396
  8
0
 10
1423.0
 20
797.0
 30
0.0
 70
0
  0
VERTEX
  5
397
  8
0
 10
1423.0
 20
796.0
 30
0.0
 70
0
  0
VERTEX
  5
398
  8
0
 10
1421.0
 20
794.0
 30
0.0
 70
0
  0
VERTEX
  5
399
  8
0
 10
1421.0
 20
793.0
 30
0.0
 70
0
  0
VERTEX
  5
39A
  8
0
 10
1420.0
 20
792.0
 30
0.0
 70
0
  0
VERTEX
  5
39B
  8
0
 10
1420.0
 20
791.0
 30
0.0
 70
0
  0
VERTEX
  5
39C
  8
0
 10
1419.0
 20
790.0
 30
0.0
 70
0
  0
VERTEX
  5
39D
  8
0
 10
1419.0
 20
789.0
 30
0.0
 70
0
  0
VERTEX
  5
39E
  8
0
 10
1418.0
 20
788.0
 30
0.0
 70
0
  0
VERTEX
  5
39F
  8
0
 10
1418.0
 20
787.0
 30
0.0
 70
0
  0
VERTEX
  5
3A0
  8
0
 10
1417.0
 20
786.0
 30
0.0
 70
0
  0
VERTEX
  5
3A1
  8
0
 10
1417.0
 20
785.0
 30
0.0
 70
0
  0
VERTEX
  5
3A2
  8
0
 10
1416.0
 20
784.0
 30
0.0
 70
0
  0
VERTEX
  5
3A3
  8
0
 10
1416.0
 20
783.0
 30
0.0
 70
0
  0
VERTEX
  5
3A4
  8
0
 10
1415.0
 20
782.0
 30
0.0
 70
0
  0
VERTEX
  5
3A5
  8
0
 10
1415.0
 20
780.0
 30
0.0
 70
0
  0
VERTEX
  5
3A6
  8
0
 10
1414.0
 20
779.0
 30
0.0
 70
0
  0
VERTEX
  5
3A7
  8
0
 10
1414.0
 20
778.0
 30
0.0
 70
0
  0
VERTEX
  5
3A8
  8
0
 10
1413.0
 20
777.0
 30
0.0
 70
0
  0
VERTEX
  5
3A9
  8
0
 10
1413.0
 20
776.0
 30
0.0
 70
0
  0
VERTEX
  5
3AA
  8
0
 10
1412.0
 20
775.0
 30
0.0
 70
0
  0
VERTEX
  5
3AB
  8
0
 10
1412.0
 20
774.0
 30
0.0
 70
0
  0
VERTEX
  5
3AC
  8
0
 10
1411.0
 20
773.0
 30
0.0
 70
0
  0
VERTEX
  5
3AD
  8
0
 10
1411.0
 20
772.0
 30
0.0
 70
0
  0
VERTEX
  5
3AE
  8
0
 10
1410.0
 20
771.0
 30
0.0
 70
0
  0
VERTEX
  5
3AF
  8
0
 10
1410.0
 20
769.0
 30
0.0
 70
0
  0
VERTEX
  5
3B0
  8
0
 10
1409.0
 20
768.0
 30
0.0
 70
0
  0
VERTEX
  5
3B1
  8
0
 10
1409.0
 20
767.0
 30
0.0
 70
0
  0
VERTEX
  5
3B2
  8
0
 10
1408.0
 20
766.0
 30
0.0
 70
0
  0
VERTEX
  5
3B3
  8
0
 10
1408.0
 20
764.0
 30
0.0
 70
0
  0
VERTEX
  5
3B4
  8
0
 10
1407.0
 20
763.0
 30
0.0
 70
0
  0
VERTEX
  5
3B5
  8
0
 10
1407.0
 20
762.0
 30
0.0
 70
0
  0
VERTEX
  5
3B6
  8
0
 10
1406.0
 20
761.0
 30
0.0
 70
0
  0
VERTEX
  5
3B7
  8
0
 10
1406.0
 20
759.0
 30
0.0
 70
0
  0
VERTEX
  5
3B8
  8
0
 10
1405.0
 20
758.0
 30
0.0
 70
0
  0
VERTEX
  5
3B9
  8
0
 10
1405.0
 20
757.0
 30
0.0
 70
0
  0
VERTEX
  5
3BA
  8
0
 10
1404.0
 20
756.0
 30
0.0
 70
0
  0
VERTEX
  5
3BB
  8
0
 10
1404.0
 20
754.0
 30
0.0
 70
0
  0
VERTEX
  5
3BC
  8
0
 10
1403.0
 20
753.0
 30
0.0
 70
0
  0
VERTEX
  5
3BD
  8
0
 10
1403.0
 20
751.0
 30
0.0
 70
0
  0
VERTEX
  5
3BE
  8
0
 10
1402.0
 20
750.0
 30
0.0
 70
0
  0
VERTEX
  5
3BF
  8
0
 10
1402.0
 20
748.0
 30
0.0
 70
0
  0
VERTEX
  5
3C0
  8
0
 10
1401.0
 20
747.0
 30
0.0
 70
0
  0
VERTEX
  5
3C1
  8
0
 10
1401.0
 20
745.0
 30
0.0
 70
0
  0
VERTEX
  5
3C2
  8
0
 10
1400.0
 20
744.0
 30
0.0
 70
0
  0
VERTEX
  5
3C3
  8
0
 10
1400.0
 20
742.0
 30
0.0
 70
0
  0
VERTEX
  5
3C4
  8
0
 10
1399.0
 20
741.0
 30
0.0
 70
0
  0
VERTEX
  5
3C5
  8
0
 10
1399.0
 20
739.0
 30
0.0
 70
0
  0
VERTEX
  5
3C6
  8
0
 10
1398.0
 20
738.0
 30
0.0
 70
0
  0
VERTEX
  5
3C7
  8
0
 10
1398.0
 20
735.0
 30
0.0
 70
0
  0
VERTEX
  5
3C8
  8
0
 10
1397.0
 20
734.0
 30
0.0
 70
0
  0
VERTEX
  5
3C9
  8
0
 10
1397.0
 20
732.0
 30
0.0
 70
0
  0
VERTEX
  5
3CA
  8
0
 10
1396.0
 20
731.0
 30
0.0
 70
0
  0
VERTEX
  5
3CB
  8
0
 10
1396.0
 20
728.0
 30
0.0
 70
0
  0
VERTEX
  5
3CC
  8
0
 10
1395.0
 20
727.0
 30
0.0
 70
0
  0
VERTEX
  5
3CD
  8
0
 10
1395.0
 20
724.0
 30
0.0
 70
0
  0
VERTEX
  5
3CE
  8
0
 10
1394.0
 20
723.0
 30
0.0
 70
0
  0
VERTEX
  5
3CF
  8
0
 10
1394.0
 20
719.0
 30
0.0
 70
0
  0
VERTEX
  5
3D0
  8
0
 10
1393.0
 20
718.0
 30
0.0
 70
0
  0
VERTEX
  5
3D1
  8
0
 10
1393.0
 20
714.0
 30
0.0
 70
0
  0
VERTEX
  5
3D2
  8
0
 10
1392.0
 20
713.0
 30
0.0
 70
0
  0
VERTEX
  5
3D3
  8
0
 10
1392.0
 20
709.0
 30
0.0
 70
0
  0
VERTEX
  5
3D4
  8
0
 10
1391.0
 20
708.0
 30
0.0
 70
0
  0
VERTEX
  5
3D5
  8
0
 10
1391.0
 20
703.0
 30
0.0
 70
0
  0
VERTEX
  5
3D6
  8
0
 10
1390.0
 20
702.0
 30
0.0
 70
0
  0
VERTEX
  5
3D7
  8
0
 10
1390.0
 20
695.0
 30
0.0
 70
0
  0
VERTEX
  5
3D8
  8
0
 10
1389.0
 20
694.0
 30
0.0
 70
0
  0
VERTEX
  5
3D9
  8
0
 10
1389.0
 20
685.0
 30
0.0
 70
0
  0
VERTEX
  5
3DA
  8
0
 10
1388.0
 20
684.0
 30
0.0
 70
0
  0
VERTEX
  5
3DB
  8
0
 10
1388.0
 20
649.0
 30
0.0
 70
0
  0
VERTEX
  5
3DC
  8
0
 10
1389.0
 20
648.0
 30
0.0
 70
0
  0
VERTEX
  5
3DD
  8
0
 10
1389.0
 20
639.0
 30
0.0
 70
0
  0
VERTEX
  5
3DE
  8
0
 10
1390.0
 20
638.0
 30
0.0
 70
0
  0
VERTEX
  5
3DF
  8
0
 10
1390.0
 20
632.0
 30
0.0
 70
0
  0
VERTEX
  5
3E0
  8
0
 10
1391.0
 20
631.0
 30
0.0
 70
0
  0
VERTEX
  5
3E1
  8
0
 10
1391.0
 20
625.0
 30
0.0
 70
0
  0
VERTEX
  5
3E2
  8
0
 10
1392.0
 20
624.0
 30
0.0
 70
0
  0
VERTEX
  5
3E3
  8
0
 10
1392.0
 20
620.0
 30
0.0
 70
0
  0
VERTEX
  5
3E4
  8
0
 10
1393.0
 20
619.0
 30
0.0
 70
0
  0
VERTEX
  5
3E5
  8
0
 10
1393.0
 20
615.0
 30
0.0
 70
0
  0
VERTEX
  5
3E6
  8
0
 10
1394.0
 20
614.0
 30
0.0
 70
0
  0
VERTEX
  5
3E7
  8
0
 10
1394.0
 20
611.0
 30
0.0
 70
0
  0
VERTEX
  5
3E8
  8
0
 10
1395.0
 20
610.0
 30
0.0
 70
0
  0
VERTEX
  5
3E9
  8
0
 10
1395.0
 20
607.0
 30
0.0
 70
0
  0
VERTEX
  5
3EA
  8
0
 10
1396.0
 20
606.0
 30
0.0
 70
0
  0
VERTEX
  5
3EB
  8
0
 10
1396.0
 20
603.0
 30
0.0
 70
0
  0
VERTEX
  5
3EC
  8
0
 10
1397.0
 20
602.0
 30
0.0
 70
0
  0
VERTEX
  5
3ED
  8
0
 10
1397.0
 20
599.0
 30
0.0
 70
0
  0
VERTEX
  5
3EE
  8
0
 10
1398.0
 20
598.0
 30
0.0
 70
0
  0
VERTEX
  5
3EF
  8
0
 10
1398.0
 20
596.0
 30
0.0
 70
0
  0
VERTEX
  5
3F0
  8
0
 10
1399.0
 20
595.0
 30
0.0
 70
0
  0
VERTEX
  5
3F1
  8
0
 10
1399.0
 20
592.0
 30
0.0
 70
0
  0
VERTEX
  5
3F2
  8
0
 10
1400.0
 20
591.0
 30
0.0
 70
0
  0
VERTEX
  5
3F3
  8
0
 10
1400.0
 20
589.0
 30
0.0
 70
0
  0
VERTEX
  5
3F4
  8
0
 10
1401.0
 20
588.0
 30
0.0
 70
0
  0
VERTEX
  5
3F5
  8
0
 10
1401.0
 20
586.0
 30
0.0
 70
0
  0
VERTEX
  5
3F6
  8
0
 10
1402.0
 20
585.0
 30
0.0
 70
0
  0
VERTEX
  5
3F7
  8
0
 10
1402.0
 20
583.0
 30
0.0
 70
0
  0
VERTEX
  5
3F8
  8
0
 10
1403.0
 20
582.0
 30
0.0
 70
0
  0
VERTEX
  5
3F9
  8
0
 10
1403.0
 20
581.0
 30
0.0
 70
0
  0
VERTEX
  5
3FA
  8
0
 10
1404.0
 20
580.0
 30
0.0
 70
0
  0
VERTEX
  5
3FB
  8
0
 10
1404.0
 20
578.0
 30
0.0
 70
0
  0
VERTEX
  5
3FC
  8
0
 10
1405.0
 20
577.0
 30
0.0
 70
0
  0
VERTEX
  5
3FD
  8
0
 10
1405.0
 20
575.0
 30
0.0
 70
0
  0
VERTEX
  5
3FE
  8
0
 10
1406.0
 20
574.0
 30
0.0
 70
0
  0
VERTEX
  5
3FF
  8
0
 10
1406.0
 20
573.0
 30
0.0
 70
0
  0
VERTEX
  5
400
  8
0
 10
1407.0
 20
572.0
 30
0.0
 70
0
  0
VERTEX
  5
401
  8
0
 10
1407.0
 20
570.0
 30
0.0
 70
0
  0
VERTEX
  5
402
  8
0
 10
1408.0
 20
569.0
 30
0.0
 70
0
  0
VERTEX
  5
403
  8
0
 10
1408.0
 20
568.0
 30
0.0
 70
0
  0
VERTEX
  5
404
  8
0
 10
1409.0
 20
567.0
 30
0.0
 70
0
  0
VERTEX
  5
405
  8
0
 10
1409.0
 20
565.0
 30
0.0
 70
0
  0
VERTEX
  5
406
  8
0
 10
1410.0
 20
564.0
 30
0.0
 70
0
  0
VERTEX
  5
407
  8
0
 10
1410.0
 20
563.0
 30
0.0
 70
0
  0
VERTEX
  5
408
  8
0
 10
1411.0
 20
562.0
 30
0.0
 70
0
  0
VERTEX
  5
409
  8
0
 10
1411.0
 20
561.0
 30
0.0
 70
0
  0
VERTEX
  5
40A
  8
0
 10
1412.0
 20
560.0
 30
0.0
 70
0
  0
VERTEX
  5
40B
  8
0
 10
1412.0
 20
558.0
 30
0.0
 70
0
  0
VERTEX
  5
40C
  8
0
 10
1413.0
 20
557.0
 30
0.0
 70
0
  0
VERTEX
  5
40D
  8
0
 10
1413.0
 20
556.0
 30
0.0
 70
0
  0
VERTEX
  5
40E
  8
0
 10
1414.0
 20
555.0
 30
0.0
 70
0
  0
VERTEX
  5
40F
  8
0
 10
1414.0
 20
554.0
 30
0.0
 70
0
  0
VERTEX
  5
410
  8
0
 10
1415.0
 20
553.0
 30
0.0
 70
0
  0
VERTEX
  5
411
  8
0
 10
1415.0
 20
552.0
 30
0.0
 70
0
  0
VERTEX
  5
412
  8
0
 10
1416.0
 20
551.0
 30
0.0
 70
0
  0
VERTEX
  5
413
  8
0
 10
1416.0
 20
550.0
 30
0.0
 70
0
  0
VERTEX
  5
414
  8
0
 10
1417.0
 20
549.0
 30
0.0
 70
0
  0
VERTEX
  5
415
  8
0
 10
1417.0
 20
548.0
 30
0.0
 70
0
  0
VERTEX
  5
416
  8
0
 10
1418.0
 20
547.0
 30
0.0
 70
0
  0
VERTEX
  5
417
  8
0
 10
1418.0
 20
546.0
 30
0.0
 70
0
  0
VERTEX
  5
418
  8
0
 10
1419.0
 20
545.0
 30
0.0
 70
0
  0
VERTEX
  5
419
  8
0
 10
1419.0
 20
544.0
 30
0.0
 70
0
  0
VERTEX
  5
41A
  8
0
 10
1420.0
 20
543.0
 30
0.0
 70
0
  0
VERTEX
  5
41B
  8
0
 10
1420.0
 20
542.0
 30
0.0
 70
0
  0
VERTEX
  5
41C
  8
0
 10
1421.0
 20
541.0
 30
0.0
 70
0
  0
VERTEX
  5
41D
  8
0
 10
1421.0
 20
540.0
 30
0.0
 70
0
  0
VERTEX
  5
41E
  8
0
 10
1422.0
 20
539.0
 30
0.0
 70
0
  0
VERTEX
  5
41F
  8
0
 10
1422.0
 20
538.0
 30
0.0
 70
0
  0
VERTEX
  5
420
  8
0
 10
1423.0
 20
537.0
 30
0.0
 70
0
  0
VERTEX
  5
421
  8
0
 10
1423.0
 20
536.0
 30
0.0
 70
0
  0
VERTEX
  5
422
  8
0
 10
1424.0
 20
535.0
 30
0.0
 70
0
  0
VERTEX
  5
423
  8
0
 10
1424.0
 20
534.0
 30
0.0
 70
0
  0
VERTEX
  5
424
  8
0
 10
1425.0
 20
533.0
 30
0.0
 70
0
  0
VERTEX
  5
425
  8
0
 10
1425.0
 20
532.0
 30
0.0
 70
0
  0
VERTEX
  5
426
  8
0
 10
1427.0
 20
530.0
 30
0.0
 70
0
  0
VERTEX
  5
427
  8
0
 10
1427.0
 20
529.0
 30
0.0
 70
0
  0
VERTEX
  5
428
  8
0
 10
1428.0
 20
528.0
 30
0.0
 70
0
  0
VERTEX
  5
429
  8
0
 10
1428.0
 20
527.0
 30
0.0
 70
0
  0
VERTEX
  5
42A
  8
0
 10
1429.0
 20
526.0
 30
0.0
 70
0
  0
VERTEX
  5
42B
  8
0
 10
1429.0
 20
525.0
 30
0.0
 70
0
  0
VERTEX
  5
42C
  8
0
 10
1431.0
 20
523.0
 30
0.0
 70
0
  0
VERTEX
  5
42D
  8
0
 10
1431.0
 20
522.0
 30
0.0
 70
0
  0
VERTEX
  5
42E
  8
0
 10
1432.0
 20
521.0
 30
0.0
 70
0
  0
VERTEX
  5
42F
  8
0
 10
1432.0
 20
520.0
 30
0.0
 70
0
  0
VERTEX
  5
430
  8
0
 10
1433.0
 20
519.0
 30
0.0
 70
0
  0
VERTEX
  5
431
  8
0
 10
1433.0
 20
518.0
 30
0.0
 70
0
  0
VERTEX
  5
432
  8
0
 10
1435.0
 20
516.0
 30
0.0
 70
0
  0
VERTEX
  5
433
  8
0
 10
1435.0
 20
515.0
 30
0.0
 70
0
  0
VERTEX
  5
434
  8
0
 10
1437.0
 20
513.0
 30
0.0
 70
0
  0
VERTEX
  5
435
  8
0
 10
1437.0
 20
512.0
 30
0.0
 70
0
  0
VERTEX
  5
436
  8
0
 10
1438.0
 20
511.0
 30
0.0
 70
0
  0
VERTEX
  5
437
  8
0
 10
1438.0
 20
510.0
 30
0.0
 70
0
  0
VERTEX
  5
438
  8
0
 10
1440.0
 20
508.0
 30
0.0
 70
0
  0
VERTEX
  5
439
  8
0
 10
1440.0
 20
507.0
 30
0.0
 70
0
  0
VERTEX
  5
43A
  8
0
 10
1442.0
 20
505.0
 30
0.0
 70
0
  0
VERTEX
  5
43B
  8
0
 10
1442.0
 20
504.0
 30
0.0
 70
0
  0
VERTEX
  5
43C
  8
0
 10
1444.0
 20
502.0
 30
0.0
 70
0
  0
VERTEX
  5
43D
  8
0
 10
1444.0
 20
501.0
 30
0.0
 70
0
  0
VERTEX
  5
43E
  8
0
 10
1446.0
 20
499.0
 30
0.0
 70
0
  0
VERTEX
  5
43F
  8
0
 10
1446.0
 20
498.0
 30
0.0
 70
0
  0
VERTEX
  5
440
  8
0
 10
1448.0
 20
496.0
 30
0.0
 70
0
  0
VERTEX
  5
441
  8
0
 10
1448.0
 20
495.0
 30
0.0
 70
0
  0
VERTEX
  5
442
  8
0
 10
1450.0
 20
493.0
 30
0.0
 70
0
  0
VERTEX
  5
443
  8
0
 10
1450.0
 20
492.0
 30
0.0
 70
0
  0
VERTEX
  5
444
  8
0
 10
1453.0
 20
489.0
 30
0.0
 70
0
  0
VERTEX
  5
445
  8
0
 10
1453.0
 20
488.0
 30
0.0
 70
0
  0
VERTEX
  5
446
  8
0
 10
1455.0
 20
486.0
 30
0.0
 70
0
  0
VERTEX
  5
447
  8
0
 10
1455.0
 20
485.0
 30
0.0
 70
0
  0
VERTEX
  5
448
  8
0
 10
1458.0
 20
482.0
 30
0.0
 70
0
  0
VERTEX
  5
449
  8
0
 10
1458.0
 20
481.0
 30
0.0
 70
0
  0
VERTEX
  5
44A
  8
0
 10
1461.0
 20
478.0
 30
0.0
 70
0
  0
VERTEX
  5
44B
  8
0
 10
1461.0
 20
477.0
 30
0.0
 70
0
  0
VERTEX
  5
44C
  8
0
 10
1464.0
 20
474.0
 30
0.0
 70
0
  0
VERTEX
  5
44D
  8
0
 10
1464.0
 20
473.0
 30
0.0
 70
0
  0
VERTEX
  5
44E
  8
0
 10
1468.0
 20
469.0
 30
0.0
 70
0
  0
VERTEX
  5
44F
  8
0
 10
1468.0
 20
468.0
 30
0.0
 70
0
  0
VERTEX
  5
450
  8
0
 10
1472.0
 20
464.0
 30
0.0
 70
0
  0
VERTEX
  5
451
  8
0
 10
1472.0
 20
463.0
 30
0.0
 70
0
  0
VERTEX
  5
452
  8
0
 10
1476.0
 20
459.0
 30
0.0
 70
0
  0
VERTEX
  5
453
  8
0
 10
1476.0
 20
458.0
 30
0.0
 70
0
  0
VERTEX
  5
454
  8
0
 10
1481.0
 20
453.0
 30
0.0
 70
0
  0
VERTEX
  5
455
  8
0
 10
1481.0
 20
452.0
 30
0.0
 70
0
  0
VERTEX
  5
456
  8
0
 10
1487.0
 20
446.0
 30
0.0
 70
0
  0
VERTEX
  5
457
  8
0
 10
1487.0
 20
445.0
 30
0.0
 70
0
  0
VERTEX
  5
458
  8
0
 10
1494.0
 20
438.0
 30
0.0
 70
0
  0
VERTEX
  5
459
  8
0
 10
1494.0
 20
437.0
 30
0.0
 70
0
  0
VERTEX
  5
45A
  8
0
 10
1505.0
 20
426.0
 30
0.0
 70
0
  0
VERTEX
  5
45B
  8
0
 10
1505.0
 20
425.0
 30
0.0
 70
0
  0
VERTEX
  5
45C
  8
0
 10
1547.0
 20
383.0
 30
0.0
 70
0
  0
VERTEX
  5
45D
  8
0
 10
1548.0
 20
383.0
 30
0.0
 70
0
  0
VERTEX
  5
45E
  8
0
 10
1560.0
 20
371.0
 30
0.0
 70
0
  0
VERTEX
  5
45F
  8
0
 10
1561.0
 20
371.0
 30
0.0
 70
0
  0
VERTEX
  5
460
  8
0
 10
1569.0
 20
363.0
 30
0.0
 70
0
  0
VERTEX
  5
461
  8
0
 10
1570.0
 20
363.0
 30
0.0
 70
0
  0
VERTEX
  5
462
  8
0
 10
1578.0
 20
355.0
 30
0.0
 70
0
  0
VERTEX
  5
463
  8
0
 10
1579.0
 20
355.0
 30
0.0
 70
0
  0
VERTEX
  5
464
  8
0
 10
1585.0
 20
349.0
 30
0.0
 70
0
  0
VERTEX
  5
465
  8
0
 10
1586.0
 20
349.0
 30
0.0
 70
0
  0
VERTEX
  5
466
  8
0
 10
1592.0
 20
343.0
 30
0.0
 70
0
  0
VERTEX
  5
467
  8
0
 10
1593.0
 20
343.0
 30
0.0
 70
0
  0
VERTEX
  5
468
  8
0
 10
1598.0
 20
338.0
 30
0.0
 70
0
  0
VERTEX
  5
469
  8
0
 10
1599.0
 20
338.0
 30
0.0
 70
0
  0
VERTEX
  5
46A
  8
0
 10
1604.0
 20
333.0
 30
0.0
 70
0
  0
VERTEX
  5
46B
  8
0
 10
1605.0
 20
333.0
 30
0.0
 70
0
  0
VERTEX
  5
46C
  8
0
 10
1610.0
 20
328.0
 30
0.0
 70
0
  0
VERTEX
  5
46D
  8
0
 10
1611.0
 20
328.0
 30
0.0
 70
0
  0
VERTEX
  5
46E
  8
0
 10
1615.0
 20
324.0
 30
0.0
 70
0
  0
VERTEX
  5
46F
  8
0
 10
1616.0
 20
324.0
 30
0.0
 70
0
  0
VERTEX
  5
470
  8
0
 10
1620.0
 20
320.0
 30
0.0
 70
0
  0
VERTEX
  5
471
  8
0
 10
1621.0
 20
320.0
 30
0.0
 70
0
  0
VERTEX
  5
472
  8
0
 10
1625.0
 20
316.0
 30
0.0
 70
0
  0
VERTEX
  5
473
  8
0
 10
1626.0
 20
316.0
 30
0.0
 70
0
  0
VERTEX
  5
474
  8
0
 10
1630.0
 20
312.0
 30
0.0
 70
0
  0
VERTEX
  5
475
  8
0
 10
1631.0
 20
312.0
 30
0.0
 70
0
  0
VERTEX
  5
476
  8
0
 10
1635.0
 20
308.0
 30
0.0
 70
0
  0
VERTEX
  5
477
  8
0
 10
1636.0
 20
308.0
 30
0.0
 70
0
  0
VERTEX
  5
478
  8
0
 10
1639.0
 20
305.0
 30
0.0
 70
0
  0
VERTEX
  5
479
  8
0
 10
1640.0
 20
305.0
 30
0.0
 70
0
  0
VERTEX
  5
47A
  8
0
 10
1644.0
 20
301.0
 30
0.0
 70
0
  0
VERTEX
  5
47B
  8
0
 10
1645.0
 20
301.0
 30
0.0
 70
0
  0
VERTEX
  5
47C
  8
0
 10
1648.0
 20
298.0
 30
0.0
 70
0
  0
VERTEX
  5
47D
  8
0
 10
1649.0
 20
298.0
 30
0.0
 70
0
  0
VERTEX
  5
47E
  8
0
 10
1652.0
 20
295.0
 30
0.0
 70
0
  0
VERTEX
  5
47F
  8
0
 10
1653.0
 20
295.0
 30
0.0
 70
0
  0
VERTEX
  5
480
  8
0
 10
1657.0
 20
291.0
 30
0.0
 70
0
  0
VERTEX
  5
481
  8
0
 10
1658.0
 20
291.0
 30
0.0
 70
0
  0
VERTEX
  5
482
  8
0
 10
1661.0
 20
288.0
 30
0.0
 70
0
  0
VERTEX
  5
483
  8
0
 10
1662.0
 20
288.0
 30
0.0
 70
0
  0
VERTEX
  5
484
  8
0
 10
1665.0
 20
285.0
 30
0.0
 70
0
  0
VERTEX
  5
485
  8
0
 10
1666.0
 20
285.0
 30
0.0
 70
0
  0
VERTEX
  5
486
  8
0
 10
1666.0
 20
153.0
 30
0.0
 70
0
  0
SEQEND
  5
2E
  8
0
  0
ENDSEC
  0
EOF
