  0
SECTION
  2
HEADER
  9
$ACADVER
  1
AC1009
  9
$DWGCODEPAGE
  3
ANSI_1252
  9
$INSBASE
 10
0.0
 20
0.0
 30
0.0
  9
$EXTMIN
 10
1e+20
 20
1e+20
 30
1e+20
  9
$EXTMAX
 10
-1e+20
 20
-1e+20
 30
-1e+20
  9
$LIMMIN
 10
0.0
 20
0.0
  9
$LIMMAX
 10
420.0
 20
297.0
  9
$ORTHOMODE
 70
0
  9
$REGENMODE
 70
1
  9
$FILLMODE
 70
1
  9
$DRAGMODE
 70
2
  9
$QTEXTMODE
 70
0
  9
$MIRRTEXT
 70
1
  9
$OSMODE
 70
20583
  9
$LTSCALE
 40
1.0
  9
$ATTMODE
 70
1
  9
$TEXTSIZE
 40
2.5
  9
$TRACEWID
 40
1.0
  9
$TEXTSTYLE
  7
Standard
  9
$CLAYER
  8
0
  9
$CELTYPE
  6
ByLayer
  9
$CECOLOR
 62
256
  9
$DIMSCALE
 40
1.0
  9
$DIMASZ
 40
2.5
  9
$DIMEXO
 40
0.625
  9
$DIMDLI
 40
3.75
  9
$DIMRND
 40
0.0
  9
$DIMDLE
 40
0.0
  9
$DIMEXE
 40
1.25
  9
$DIMTP
 40
0.0
  9
$DIMTM
 40
0.0
  9
$DIMTXT
 40
2.5
  9
$DIMCEN
 40
2.5
  9
$DIMTSZ
 40
0.0
  9
$DIMTOL
 70
0
  9
$DIMLIM
 70
0
  9
$DIMTIH
 70
0
  9
$DIMTOH
 70
0
  9
$DIMSE1
 70
0
  9
$DIMSE2
 70
0
  9
$DIMTAD
 70
1
  9
$DIMZIN
 70
8
  9
$DIMBLK
  1

  9
$DIMASO
 70
1
  9
$DIMSHO
 70
1
  9
$DIMPOST
  1

  9
$DIMAPOST
  1

  9
$DIMALT
 70
0
  9
$DIMALTD
 70
3
  9
$DIMALTF
 40
0.03937007874
  9
$DIMLFAC
 40
1.0
  9
$DIMTOFL
 70
1
  9
$DIMTVP
 40
0.0
  9
$DIMTIX
 70
0
  9
$DIMSOXD
 70
0
  9
$DIMSAH
 70
0
  9
$DIMBLK1
  1

  9
$DIMBLK2
  1

  9
$DIMSTYLE
  2
ISO-25
  9
$DIMCLRD
 70
0
  9
$DIMCLRE
 70
0
  9
$DIMCLRT
 70
0
  9
$DIMTFAC
 40
1.0
  9
$DIMGAP
 40
0.625
  9
$COORDS
 70
1
  9
$ATTDIA
 70
0
  9
$ATTREQ
 70
1
  9
$HANDLING
 70
1
  9
$LUNITS
 70
2
  9
$LUPREC
 70
4
  9
$SKETCHINC
 40
1.0
  9
$FILLETRAD
 40
10.0
  9
$AUNITS
 70
0
  9
$AUPREC
 70
2
  9
$MENU
  1
.
  9
$ELEVATION
 40
0.0
  9
$PELEVATION
 40
0.0
  9
$THICKNESS
 40
0.0
  9
$LIMCHECK
 70
0
  9
$CHAMFERA
 40
0.0
  9
$CHAMFERB
 40
0.0
  9
$SKPOLY
 70
0
  9
$TDCREATE
 40
2461064.093599537
  9
$TDUPDATE
 40
2461064.093599537
  9
$TDINDWG
 40
0.0
  9
$TDUSRTIMER
 40
0.0
  9
$USRTIMER
 70
1
  9
$ANGBASE
 50
0.0
  9
$ANGDIR
 70
0
  9
$PDMODE
 70
0
  9
$PDSIZE
 40
0.0
  9
$PLINEWID
 40
0.0
  9
$SPLFRAME
 70
0
  9
$SPLINETYPE
 70
6
  9
$SPLINESEGS
 70
8
  9
$HANDSEED
  5
18B
  9
$SURFTAB1
 70
6
  9
$SURFTAB2
 70
6
  9
$SURFTYPE
 70
6
  9
$SURFU
 70
6
  9
$SURFV
 70
6
  9
$UCSNAME
  2

  9
$UCSORG
 10
0.0
 20
0.0
 30
0.0
  9
$UCSXDIR
 10
1.0
 20
0.0
 30
0.0
  9
$UCSYDIR
 10
0.0
 20
1.0
 30
0.0
  9
$PUCSNAME
  2

  9
$PUCSORG
 10
0.0
 20
0.0
 30
0.0
  9
$PUCSXDIR
 10
1.0
 20
0.0
 30
0.0
  9
$PUCSYDIR
 10
0.0
 20
1.0
 30
0.0
  9
$USERI1
 70
0
  9
$USERI2
 70
0
  9
$USERI3
 70
0
  9
$USERI4
 70
0
  9
$USERI5
 70
0
  9
$USERR1
 40
0.0
  9
$USERR2
 40
0.0
  9
$USERR3
 40
0.0
  9
$USERR4
 40
0.0
  9
$USERR5
 40
0.0
  9
$WORLDVIEW
 70
1
  9
$SHADEDGE
 70
3
  9
$SHADEDIF
 70
70
  9
$TILEMODE
 70
1
  9
$MAXACTVP
 70
64
  9
$PLIMCHECK
 70
0
  9
$PEXTMIN
 10
1e+20
 20
1e+20
 30
1e+20
  9
$PEXTMAX
 10
-1e+20
 20
-1e+20
 30
-1e+20
  9
$PLIMMIN
 10
0.0
 20
0.0
  9
$PLIMMAX
 10
420.0
 20
297.0
  9
$UNITMODE
 70
0
  9
$VISRETAIN
 70
1
  9
$PLINEGEN
 70
0
  9
$PSLTSCALE
 70
1
  0
ENDSEC
  0
SECTION
  2
TABLES
  0
TABLE
  2
VPORT
 70
1
  0
VPORT
  5
23
  2
*Active
 70
0
 10
0.0
 20
0.0
 11
1.0
 21
1.0
 12
0.0
 22
0.0
 13
0.0
 23
0.0
 14
0.5
 24
0.5
 15
0.5
 25
0.5
 16
0.0
 26
0.0
 36
1.0
 17
0.0
 27
0.0
 37
0.0
 40
1000.0
 41
1.34
 42
50.0
 43
0.0
 44
0.0
 50
0.0
 51
0.0
 71
0
 72
1000
 73
1
 74
3
 75
0
 76
0
 77
0
 78
0
  0
ENDTAB
  0
TABLE
  2
LTYPE
 70
3
  0
LTYPE
  5
24
  2
ByBlock
 70
0
  3

 72
65
 73
0
 40
0.0
  0
LTYPE
  5
25
  2
ByLayer
 70
0
  3

 72
65
 73
0
 40
0.0
  0
LTYPE
  5
26
  2
Continuous
 70
0
  3

 72
65
 73
0
 40
0.0
  0
ENDTAB
  0
TABLE
  2
LAYER
 70
2
  0
LAYER
  5
27
  2
0
 70
0
 62
7
  6
Continuous
  0
LAYER
  5
28
  2
Defpoints
 70
0
 62
7
  6
Continuous
  0
ENDTAB
  0
TABLE
  2
STYLE
 70
1
  0
STYLE
  5
29
  2
Standard
 70
0
 40
0.0
 41
1.0
 50
0.0
 71
0
 42
2.5
  3
txt
  4

  0
ENDTAB
  0
TABLE
  2
VIEW
 70
0
  0
ENDTAB
  0
TABLE
  2
UCS
 70
0
  0
ENDTAB
  0
TABLE
  2
APPID
 70
3
  0
APPID
  5
2A
  2
ACAD
 70
0
  0
APPID
  5
189
  2
HATCHBACKGROUNDCOLOR
 70
0
  0
APPID
  5
18A
  2
EZDXF
 70
0
  0
ENDTAB
  0
TABLE
  2
DIMSTYLE
 70
1
  0
DIMSTYLE
105
2B
  2
Standard
 70
0
  3

  4

  5

  6

  7

 40
1.0
 41
2.5
 42
0.625
 43
3.75
 44
1.25
 45
0.0
 46
0.0
 47
0.0
 48
0.0
140
2.5
141
2.5
142
0.0
143
0.03937007874
144
1.0
145
0.0
146
1.0
147
0.625
 71
0
 72
0
 73
0
 74
0
 75
0
 76
0
 77
1
 78
8
170
0
171
3
172
1
173
0
174
0
175
0
176
0
177
0
178
0
  0
ENDTAB
  0
ENDSEC
  0
SECTION
  2
BLOCKS
  0
BLOCK
  5
18
  8
0
  2
$Model_Space
 70
0
 10
0.0
 20
0.0
 30
0.0
  3
$Model_Space
  1

1001
EZDXF
1000
CREATED_BY_EZDXF
1000
1.4.2 @ 2026-01-23T02:14:47.020366+00:00
1000
WRITTEN_BY_EZDXF
1000
1.4.2 @ 2026-01-23T02:14:47.028927+00:00
  0
ENDBLK
  5
19
  8
0
  0
BLOCK
  5
1C
  8
0
  2
$Paper_Space
 70
0
 10
0.0
 20
0.0
 30
0.0
  3
$Paper_Space
  1

  0
ENDBLK
  5
1D
  8
0
  0
ENDSEC
  0
SECTION
  2
ENTITIES
  0
POLYLINE
  5
2D
  8
0
 66
1
 10
0.0
 20
0.0
 30
0.0
 70
0
  0
VERTEX
  5
2F
  8
0
 10
1665.0
 20
286.0
 30
0.0
 70
0
  0
VERTEX
  5
30
  8
0
 10
1662.0
 20
289.0
 30
0.0
 70
0
  0
VERTEX
  5
31
  8
0
 10
1661.0
 20
289.0
 30
0.0
 70
0
  0
VERTEX
  5
32
  8
0
 10
1658.0
 20
292.0
 30
0.0
 70
0
  0
VERTEX
  5
33
  8
0
 10
1657.0
 20
292.0
 30
0.0
 70
0
  0
VERTEX
  5
34
  8
0
 10
1653.0
 20
296.0
 30
0.0
 70
0
  0
VERTEX
  5
35
  8
0
 10
1652.0
 20
296.0
 30
0.0
 70
0
  0
VERTEX
  5
36
  8
0
 10
1649.0
 20
299.0
 30
0.0
 70
0
  0
VERTEX
  5
37
  8
0
 10
1648.0
 20
299.0
 30
0.0
 70
0
  0
VERTEX
  5
38
  8
0
 10
1645.0
 20
302.0
 30
0.0
 70
0
  0
VERTEX
  5
39
  8
0
 10
1644.0
 20
302.0
 30
0.0
 70
0
  0
VERTEX
  5
3A
  8
0
 10
1640.0
 20
306.0
 30
0.0
 70
0
  0
VERTEX
  5
3B
  8
0
 10
1639.0
 20
306.0
 30
0.0
 70
0
  0
VERTEX
  5
3C
  8
0
 10
1636.0
 20
309.0
 30
0.0
 70
0
  0
VERTEX
  5
3D
  8
0
 10
1635.0
 20
309.0
 30
0.0
 70
0
  0
VERTEX
  5
3E
  8
0
 10
1631.0
 20
313.0
 30
0.0
 70
0
  0
VERTEX
  5
3F
  8
0
 10
1630.0
 20
313.0
 30
0.0
 70
0
  0
VERTEX
  5
40
  8
0
 10
1626.0
 20
317.0
 30
0.0
 70
0
  0
VERTEX
  5
41
  8
0
 10
1625.0
 20
317.0
 30
0.0
 70
0
  0
VERTEX
  5
42
  8
0
 10
1621.0
 20
321.0
 30
0.0
 70
0
  0
VERTEX
  5
43
  8
0
 10
1620.0
 20
321.0
 30
0.0
 70
0
  0
VERTEX
  5
44
  8
0
 10
1616.0
 20
325.0
 30
0.0
 70
0
  0
VERTEX
  5
45
  8
0
 10
1615.0
 20
325.0
 30
0.0
 70
0
  0
VERTEX
  5
46
  8
0
 10
1611.0
 20
329.0
 30
0.0
 70
0
  0
VERTEX
  5
47
  8
0
 10
1610.0
 20
329.0
 30
0.0
 70
0
  0
VERTEX
  5
48
  8
0
 10
1605.0
 20
334.0
 30
0.0
 70
0
  0
VERTEX
  5
49
  8
0
 10
1604.0
 20
334.0
 30
0.0
 70
0
  0
VERTEX
  5
4A
  8
0
 10
1599.0
 20
339.0
 30
0.0
 70
0
  0
VERTEX
  5
4B
  8
0
 10
1598.0
 20
339.0
 30
0.0
 70
0
  0
VERTEX
  5
4C
  8
0
 10
1593.0
 20
344.0
 30
0.0
 70
0
  0
VERTEX
  5
4D
  8
0
 10
1592.0
 20
344.0
 30
0.0
 70
0
  0
VERTEX
  5
4E
  8
0
 10
1586.0
 20
350.0
 30
0.0
 70
0
  0
VERTEX
  5
4F
  8
0
 10
1585.0
 20
350.0
 30
0.0
 70
0
  0
VERTEX
  5
50
  8
0
 10
1579.0
 20
356.0
 30
0.0
 70
0
  0
VERTEX
  5
51
  8
0
 10
1578.0
 20
356.0
 30
0.0
 70
0
  0
VERTEX
  5
52
  8
0
 10
1570.0
 20
364.0
 30
0.0
 70
0
  0
VERTEX
  5
53
  8
0
 10
1569.0
 20
364.0
 30
0.0
 70
0
  0
VERTEX
  5
54
  8
0
 10
1561.0
 20
372.0
 30
0.0
 70
0
  0
VERTEX
  5
55
  8
0
 10
1560.0
 20
372.0
 30
0.0
 70
0
  0
VERTEX
  5
56
  8
0
 10
1548.0
 20
384.0
 30
0.0
 70
0
  0
VERTEX
  5
57
  8
0
 10
1547.0
 20
384.0
 30
0.0
 70
0
  0
VERTEX
  5
58
  8
0
 10
1506.0
 20
425.0
 30
0.0
 70
0
  0
VERTEX
  5
59
  8
0
 10
1506.0
 20
426.0
 30
0.0
 70
0
  0
VERTEX
  5
5A
  8
0
 10
1495.0
 20
437.0
 30
0.0
 70
0
  0
VERTEX
  5
5B
  8
0
 10
1495.0
 20
438.0
 30
0.0
 70
0
  0
VERTEX
  5
5C
  8
0
 10
1488.0
 20
445.0
 30
0.0
 70
0
  0
VERTEX
  5
5D
  8
0
 10
1488.0
 20
446.0
 30
0.0
 70
0
  0
VERTEX
  5
5E
  8
0
 10
1482.0
 20
452.0
 30
0.0
 70
0
  0
VERTEX
  5
5F
  8
0
 10
1482.0
 20
453.0
 30
0.0
 70
0
  0
VERTEX
  5
60
  8
0
 10
1477.0
 20
458.0
 30
0.0
 70
0
  0
VERTEX
  5
61
  8
0
 10
1477.0
 20
459.0
 30
0.0
 70
0
  0
VERTEX
  5
62
  8
0
 10
1473.0
 20
463.0
 30
0.0
 70
0
  0
VERTEX
  5
63
  8
0
 10
1473.0
 20
464.0
 30
0.0
 70
0
  0
VERTEX
  5
64
  8
0
 10
1469.0
 20
468.0
 30
0.0
 70
0
  0
VERTEX
  5
65
  8
0
 10
1469.0
 20
469.0
 30
0.0
 70
0
  0
VERTEX
  5
66
  8
0
 10
1465.0
 20
473.0
 30
0.0
 70
0
  0
VERTEX
  5
67
  8
0
 10
1465.0
 20
474.0
 30
0.0
 70
0
  0
VERTEX
  5
68
  8
0
 10
1462.0
 20
477.0
 30
0.0
 70
0
  0
VERTEX
  5
69
  8
0
 10
1462.0
 20
478.0
 30
0.0
 70
0
  0
VERTEX
  5
6A
  8
0
 10
1459.0
 20
481.0
 30
0.0
 70
0
  0
VERTEX
  5
6B
  8
0
 10
1459.0
 20
482.0
 30
0.0
 70
0
  0
VERTEX
  5
6C
  8
0
 10
1456.0
 20
485.0
 30
0.0
 70
0
  0
VERTEX
  5
6D
  8
0
 10
1456.0
 20
486.0
 30
0.0
 70
0
  0
VERTEX
  5
6E
  8
0
 10
1454.0
 20
488.0
 30
0.0
 70
0
  0
VERTEX
  5
6F
  8
0
 10
1454.0
 20
489.0
 30
0.0
 70
0
  0
VERTEX
  5
70
  8
0
 10
1451.0
 20
492.0
 30
0.0
 70
0
  0
VERTEX
  5
71
  8
0
 10
1451.0
 20
493.0
 30
0.0
 70
0
  0
VERTEX
  5
72
  8
0
 10
1449.0
 20
495.0
 30
0.0
 70
0
  0
VERTEX
  5
73
  8
0
 10
1449.0
 20
496.0
 30
0.0
 70
0
  0
VERTEX
  5
74
  8
0
 10
1447.0
 20
498.0
 30
0.0
 70
0
  0
VERTEX
  5
75
  8
0
 10
1447.0
 20
499.0
 30
0.0
 70
0
  0
VERTEX
  5
76
  8
0
 10
1445.0
 20
501.0
 30
0.0
 70
0
  0
VERTEX
  5
77
  8
0
 10
1445.0
 20
502.0
 30
0.0
 70
0
  0
VERTEX
  5
78
  8
0
 10
1443.0
 20
504.0
 30
0.0
 70
0
  0
VERTEX
  5
79
  8
0
 10
1443.0
 20
505.0
 30
0.0
 70
0
  0
VERTEX
  5
7A
  8
0
 10
1441.0
 20
507.0
 30
0.0
 70
0
  0
VERTEX
  5
7B
  8
0
 10
1441.0
 20
508.0
 30
0.0
 70
0
  0
VERTEX
  5
7C
  8
0
 10
1439.0
 20
510.0
 30
0.0
 70
0
  0
VERTEX
  5
7D
  8
0
 10
1439.0
 20
511.0
 30
0.0
 70
0
  0
VERTEX
  5
7E
  8
0
 10
1438.0
 20
512.0
 30
0.0
 70
0
  0
VERTEX
  5
7F
  8
0
 10
1438.0
 20
513.0
 30
0.0
 70
0
  0
VERTEX
  5
80
  8
0
 10
1436.0
 20
515.0
 30
0.0
 70
0
  0
VERTEX
  5
81
  8
0
 10
1436.0
 20
516.0
 30
0.0
 70
0
  0
VERTEX
  5
82
  8
0
 10
1434.0
 20
518.0
 30
0.0
 70
0
  0
VERTEX
  5
83
  8
0
 10
1434.0
 20
519.0
 30
0.0
 70
0
  0
VERTEX
  5
84
  8
0
 10
1433.0
 20
520.0
 30
0.0
 70
0
  0
VERTEX
  5
85
  8
0
 10
1433.0
 20
521.0
 30
0.0
 70
0
  0
VERTEX
  5
86
  8
0
 10
1432.0
 20
522.0
 30
0.0
 70
0
  0
VERTEX
  5
87
  8
0
 10
1432.0
 20
523.0
 30
0.0
 70
0
  0
VERTEX
  5
88
  8
0
 10
1430.0
 20
525.0
 30
0.0
 70
0
  0
VERTEX
  5
89
  8
0
 10
1430.0
 20
526.0
 30
0.0
 70
0
  0
VERTEX
  5
8A
  8
0
 10
1429.0
 20
527.0
 30
0.0
 70
0
  0
VERTEX
  5
8B
  8
0
 10
1429.0
 20
528.0
 30
0.0
 70
0
  0
VERTEX
  5
8C
  8
0
 10
1428.0
 20
529.0
 30
0.0
 70
0
  0
VERTEX
  5
8D
  8
0
 10
1428.0
 20
530.0
 30
0.0
 70
0
  0
VERTEX
  5
8E
  8
0
 10
1426.0
 20
532.0
 30
0.0
 70
0
  0
VERTEX
  5
8F
  8
0
 10
1426.0
 20
533.0
 30
0.0
 70
0
  0
VERTEX
  5
90
  8
0
 10
1425.0
 20
534.0
 30
0.0
 70
0
  0
VERTEX
  5
91
  8
0
 10
1425.0
 20
535.0
 30
0.0
 70
0
  0
VERTEX
  5
92
  8
0
 10
1424.0
 20
536.0
 30
0.0
 70
0
  0
VERTEX
  5
93
  8
0
 10
1424.0
 20
537.0
 30
0.0
 70
0
  0
VERTEX
  5
94
  8
0
 10
1423.0
 20
538.0
 30
0.0
 70
0
  0
VERTEX
  5
95
  8
0
 10
1423.0
 20
539.0
 30
0.0
 70
0
  0
VERTEX
  5
96
  8
0
 10
1422.0
 20
540.0
 30
0.0
 70
0
  0
VERTEX
  5
97
  8
0
 10
1422.0
 20
541.0
 30
0.0
 70
0
  0
VERTEX
  5
98
  8
0
 10
1421.0
 20
542.0
 30
0.0
 70
0
  0
VERTEX
  5
99
  8
0
 10
1421.0
 20
543.0
 30
0.0
 70
0
  0
VERTEX
  5
9A
  8
0
 10
1420.0
 20
544.0
 30
0.0
 70
0
  0
VERTEX
  5
9B
  8
0
 10
1420.0
 20
545.0
 30
0.0
 70
0
  0
VERTEX
  5
9C
  8
0
 10
1419.0
 20
546.0
 30
0.0
 70
0
  0
VERTEX
  5
9D
  8
0
 10
1419.0
 20
547.0
 30
0.0
 70
0
  0
VERTEX
  5
9E
  8
0
 10
1418.0
 20
548.0
 30
0.0
 70
0
  0
VERTEX
  5
9F
  8
0
 10
1418.0
 20
549.0
 30
0.0
 70
0
  0
VERTEX
  5
A0
  8
0
 10
1417.0
 20
550.0
 30
0.0
 70
0
  0
VERTEX
  5
A1
  8
0
 10
1417.0
 20
551.0
 30
0.0
 70
0
  0
VERTEX
  5
A2
  8
0
 10
1416.0
 20
552.0
 30
0.0
 70
0
  0
VERTEX
  5
A3
  8
0
 10
1416.0
 20
553.0
 30
0.0
 70
0
  0
VERTEX
  5
A4
  8
0
 10
1415.0
 20
554.0
 30
0.0
 70
0
  0
VERTEX
  5
A5
  8
0
 10
1415.0
 20
555.0
 30
0.0
 70
0
  0
VERTEX
  5
A6
  8
0
 10
1414.0
 20
556.0
 30
0.0
 70
0
  0
VERTEX
  5
A7
  8
0
 10
1414.0
 20
557.0
 30
0.0
 70
0
  0
VERTEX
  5
A8
  8
0
 10
1413.0
 20
558.0
 30
0.0
 70
0
  0
VERTEX
  5
A9
  8
0
 10
1413.0
 20
560.0
 30
0.0
 70
0
  0
VERTEX
  5
AA
  8
0
 10
1412.0
 20
561.0
 30
0.0
 70
0
  0
VERTEX
  5
AB
  8
0
 10
1412.0
 20
562.0
 30
0.0
 70
0
  0
VERTEX
  5
AC
  8
0
 10
1411.0
 20
563.0
 30
0.0
 70
0
  0
VERTEX
  5
AD
  8
0
 10
1411.0
 20
564.0
 30
0.0
 70
0
  0
VERTEX
  5
AE
  8
0
 10
1410.0
 20
565.0
 30
0.0
 70
0
  0
VERTEX
  5
AF
  8
0
 10
1410.0
 20
567.0
 30
0.0
 70
0
  0
VERTEX
  5
B0
  8
0
 10
1409.0
 20
568.0
 30
0.0
 70
0
  0
VERTEX
  5
B1
  8
0
 10
1409.0
 20
569.0
 30
0.0
 70
0
  0
VERTEX
  5
B2
  8
0
 10
1408.0
 20
570.0
 30
0.0
 70
0
  0
VERTEX
  5
B3
  8
0
 10
1408.0
 20
572.0
 30
0.0
 70
0
  0
VERTEX
  5
B4
  8
0
 10
1407.0
 20
573.0
 30
0.0
 70
0
  0
VERTEX
  5
B5
  8
0
 10
1407.0
 20
574.0
 30
0.0
 70
0
  0
VERTEX
  5
B6
  8
0
 10
1406.0
 20
575.0
 30
0.0
 70
0
  0
VERTEX
  5
B7
  8
0
 10
1406.0
 20
577.0
 30
0.0
 70
0
  0
VERTEX
  5
B8
  8
0
 10
1405.0
 20
578.0
 30
0.0
 70
0
  0
VERTEX
  5
B9
  8
0
 10
1405.0
 20
580.0
 30
0.0
 70
0
  0
VERTEX
  5
BA
  8
0
 10
1404.0
 20
581.0
 30
0.0
 70
0
  0
VERTEX
  5
BB
  8
0
 10
1404.0
 20
582.0
 30
0.0
 70
0
  0
VERTEX
  5
BC
  8
0
 10
1403.0
 20
583.0
 30
0.0
 70
0
  0
VERTEX
  5
BD
  8
0
 10
1403.0
 20
585.0
 30
0.0
 70
0
  0
VERTEX
  5
BE
  8
0
 10
1402.0
 20
586.0
 30
0.0
 70
0
  0
VERTEX
  5
BF
  8
0
 10
1402.0
 20
588.0
 30
0.0
 70
0
  0
VERTEX
  5
C0
  8
0
 10
1401.0
 20
589.0
 30
0.0
 70
0
  0
VERTEX
  5
C1
  8
0
 10
1401.0
 20
591.0
 30
0.0
 70
0
  0
VERTEX
  5
C2
  8
0
 10
1400.0
 20
592.0
 30
0.0
 70
0
  0
VERTEX
  5
C3
  8
0
 10
1400.0
 20
595.0
 30
0.0
 70
0
  0
VERTEX
  5
C4
  8
0
 10
1399.0
 20
596.0
 30
0.0
 70
0
  0
VERTEX
  5
C5
  8
0
 10
1399.0
 20
598.0
 30
0.0
 70
0
  0
VERTEX
  5
C6
  8
0
 10
1398.0
 20
599.0
 30
0.0
 70
0
  0
VERTEX
  5
C7
  8
0
 10
1398.0
 20
602.0
 30
0.0
 70
0
  0
VERTEX
  5
C8
  8
0
 10
1397.0
 20
603.0
 30
0.0
 70
0
  0
VERTEX
  5
C9
  8
0
 10
1397.0
 20
606.0
 30
0.0
 70
0
  0
VERTEX
  5
CA
  8
0
 10
1396.0
 20
607.0
 30
0.0
 70
0
  0
VERTEX
  5
CB
  8
0
 10
1396.0
 20
610.0
 30
0.0
 70
0
  0
VERTEX
  5
CC
  8
0
 10
1395.0
 20
611.0
 30
0.0
 70
0
  0
VERTEX
  5
CD
  8
0
 10
1395.0
 20
614.0
 30
0.0
 70
0
  0
VERTEX
  5
CE
  8
0
 10
1394.0
 20
615.0
 30
0.0
 70
0
  0
VERTEX
  5
CF
  8
0
 10
1394.0
 20
619.0
 30
0.0
 70
0
  0
VERTEX
  5
D0
  8
0
 10
1393.0
 20
620.0
 30
0.0
 70
0
  0
VERTEX
  5
D1
  8
0
 10
1393.0
 20
624.0
 30
0.0
 70
0
  0
VERTEX
  5
D2
  8
0
 10
1392.0
 20
625.0
 30
0.0
 70
0
  0
VERTEX
  5
D3
  8
0
 10
1392.0
 20
631.0
 30
0.0
 70
0
  0
VERTEX
  5
D4
  8
0
 10
1391.0
 20
632.0
 30
0.0
 70
0
  0
VERTEX
  5
D5
  8
0
 10
1391.0
 20
638.0
 30
0.0
 70
0
  0
VERTEX
  5
D6
  8
0
 10
1390.0
 20
639.0
 30
0.0
 70
0
  0
VERTEX
  5
D7
  8
0
 10
1390.0
 20
648.0
 30
0.0
 70
0
  0
VERTEX
  5
D8
  8
0
 10
1389.0
 20
649.0
 30
0.0
 70
0
  0
VERTEX
  5
D9
  8
0
 10
1389.0
 20
684.0
 30
0.0
 70
0
  0
VERTEX
  5
DA
  8
0
 10
1390.0
 20
685.0
 30
0.0
 70
0
  0
VERTEX
  5
DB
  8
0
 10
1390.0
 20
694.0
 30
0.0
 70
0
  0
VERTEX
  5
DC
  8
0
 10
1391.0
 20
695.0
 30
0.0
 70
0
  0
VERTEX
  5
DD
  8
0
 10
1391.0
 20
702.0
 30
0.0
 70
0
  0
VERTEX
  5
DE
  8
0
 10
1392.0
 20
703.0
 30
0.0
 70
0
  0
VERTEX
  5
DF
  8
0
 10
1392.0
 20
708.0
 30
0.0
 70
0
  0
VERTEX
  5
E0
  8
0
 10
1393.0
 20
709.0
 30
0.0
 70
0
  0
VERTEX
  5
E1
  8
0
 10
1393.0
 20
713.0
 30
0.0
 70
0
  0
VERTEX
  5
E2
  8
0
 10
1394.0
 20
714.0
 30
0.0
 70
0
  0
VERTEX
  5
E3
  8
0
 10
1394.0
 20
718.0
 30
0.0
 70
0
  0
VERTEX
  5
E4
  8
0
 10
1395.0
 20
719.0
 30
0.0
 70
0
  0
VERTEX
  5
E5
  8
0
 10
1395.0
 20
723.0
 30
0.0
 70
0
  0
VERTEX
  5
E6
  8
0
 10
1396.0
 20
724.0
 30
0.0
 70
0
  0
VERTEX
  5
E7
  8
0
 10
1396.0
 20
727.0
 30
0.0
 70
0
  0
VERTEX
  5
E8
  8
0
 10
1397.0
 20
728.0
 30
0.0
 70
0
  0
VERTEX
  5
E9
  8
0
 10
1397.0
 20
731.0
 30
0.0
 70
0
  0
VERTEX
  5
EA
  8
0
 10
1398.0
 20
732.0
 30
0.0
 70
0
  0
VERTEX
  5
EB
  8
0
 10
1398.0
 20
734.0
 30
0.0
 70
0
  0
VERTEX
  5
EC
  8
0
 10
1399.0
 20
735.0
 30
0.0
 70
0
  0
VERTEX
  5
ED
  8
0
 10
1399.0
 20
738.0
 30
0.0
 70
0
  0
VERTEX
  5
EE
  8
0
 10
1400.0
 20
739.0
 30
0.0
 70
0
  0
VERTEX
  5
EF
  8
0
 10
1400.0
 20
741.0
 30
0.0
 70
0
  0
VERTEX
  5
F0
  8
0
 10
1401.0
 20
742.0
 30
0.0
 70
0
  0
VERTEX
  5
F1
  8
0
 10
1401.0
 20
744.0
 30
0.0
 70
0
  0
VERTEX
  5
F2
  8
0
 10
1402.0
 20
745.0
 30
0.0
 70
0
  0
VERTEX
  5
F3
  8
0
 10
1402.0
 20
747.0
 30
0.0
 70
0
  0
VERTEX
  5
F4
  8
0
 10
1403.0
 20
748.0
 30
0.0
 70
0
  0
VERTEX
  5
F5
  8
0
 10
1403.0
 20
750.0
 30
0.0
 70
0
  0
VERTEX
  5
F6
  8
0
 10
1404.0
 20
751.0
 30
0.0
 70
0
  0
VERTEX
  5
F7
  8
0
 10
1404.0
 20
753.0
 30
0.0
 70
0
  0
VERTEX
  5
F8
  8
0
 10
1405.0
 20
754.0
 30
0.0
 70
0
  0
VERTEX
  5
F9
  8
0
 10
1405.0
 20
756.0
 30
0.0
 70
0
  0
VERTEX
  5
FA
  8
0
 10
1406.0
 20
757.0
 30
0.0
 70
0
  0
VERTEX
  5
FB
  8
0
 10
1406.0
 20
758.0
 30
0.0
 70
0
  0
VERTEX
  5
FC
  8
0
 10
1407.0
 20
759.0
 30
0.0
 70
0
  0
VERTEX
  5
FD
  8
0
 10
1407.0
 20
761.0
 30
0.0
 70
0
  0
VERTEX
  5
FE
  8
0
 10
1408.0
 20
762.0
 30
0.0
 70
0
  0
VERTEX
  5
FF
  8
0
 10
1408.0
 20
763.0
 30
0.0
 70
0
  0
VERTEX
  5
100
  8
0
 10
1409.0
 20
764.0
 30
0.0
 70
0
  0
VERTEX
  5
101
  8
0
 10
1409.0
 20
766.0
 30
0.0
 70
0
  0
VERTEX
  5
102
  8
0
 10
1410.0
 20
767.0
 30
0.0
 70
0
  0
VERTEX
  5
103
  8
0
 10
1410.0
 20
768.0
 30
0.0
 70
0
  0
VERTEX
  5
104
  8
0
 10
1411.0
 20
769.0
 30
0.0
 70
0
  0
VERTEX
  5
105
  8
0
 10
1411.0
 20
771.0
 30
0.0
 70
0
  0
VERTEX
  5
106
  8
0
 10
1412.0
 20
772.0
 30
0.0
 70
0
  0
VERTEX
  5
107
  8
0
 10
1412.0
 20
773.0
 30
0.0
 70
0
  0
VERTEX
  5
108
  8
0
 10
1413.0
 20
774.0
 30
0.0
 70
0
  0
VERTEX
  5
109
  8
0
 10
1413.0
 20
775.0
 30
0.0
 70
0
  0
VERTEX
  5
10A
  8
0
 10
1414.0
 20
776.0
 30
0.0
 70
0
  0
VERTEX
  5
10B
  8
0
 10
1414.0
 20
777.0
 30
0.0
 70
0
  0
VERTEX
  5
10C
  8
0
 10
1415.0
 20
778.0
 30
0.0
 70
0
  0
VERTEX
  5
10D
  8
0
 10
1415.0
 20
779.0
 30
0.0
 70
0
  0
VERTEX
  5
10E
  8
0
 10
1416.0
 20
780.0
 30
0.0
 70
0
  0
VERTEX
  5
10F
  8
0
 10
1416.0
 20
782.0
 30
0.0
 70
0
  0
VERTEX
  5
110
  8
0
 10
1417.0
 20
783.0
 30
0.0
 70
0
  0
VERTEX
  5
111
  8
0
 10
1417.0
 20
784.0
 30
0.0
 70
0
  0
VERTEX
  5
112
  8
0
 10
1418.0
 20
785.0
 30
0.0
 70
0
  0
VERTEX
  5
113
  8
0
 10
1418.0
 20
786.0
 30
0.0
 70
0
  0
VERTEX
  5
114
  8
0
 10
1419.0
 20
787.0
 30
0.0
 70
0
  0
VERTEX
  5
115
  8
0
 10
1419.0
 20
788.0
 30
0.0
 70
0
  0
VERTEX
  5
116
  8
0
 10
1420.0
 20
789.0
 30
0.0
 70
0
  0
VERTEX
  5
117
  8
0
 10
1420.0
 20
790.0
 30
0.0
 70
0
  0
VERTEX
  5
118
  8
0
 10
1421.0
 20
791.0
 30
0.0
 70
0
  0
VERTEX
  5
119
  8
0
 10
1421.0
 20
792.0
 30
0.0
 70
0
  0
VERTEX
  5
11A
  8
0
 10
1422.0
 20
793.0
 30
0.0
 70
0
  0
VERTEX
  5
11B
  8
0
 10
1422.0
 20
794.0
 30
0.0
 70
0
  0
VERTEX
  5
11C
  8
0
 10
1424.0
 20
796.0
 30
0.0
 70
0
  0
VERTEX
  5
11D
  8
0
 10
1424.0
 20
797.0
 30
0.0
 70
0
  0
VERTEX
  5
11E
  8
0
 10
1425.0
 20
798.0
 30
0.0
 70
0
  0
VERTEX
  5
11F
  8
0
 10
1425.0
 20
799.0
 30
0.0
 70
0
  0
VERTEX
  5
120
  8
0
 10
1426.0
 20
800.0
 30
0.0
 70
0
  0
VERTEX
  5
121
  8
0
 10
1426.0
 20
801.0
 30
0.0
 70
0
  0
VERTEX
  5
122
  8
0
 10
1427.0
 20
802.0
 30
0.0
 70
0
  0
VERTEX
  5
123
  8
0
 10
1427.0
 20
803.0
 30
0.0
 70
0
  0
VERTEX
  5
124
  8
0
 10
1428.0
 20
804.0
 30
0.0
 70
0
  0
VERTEX
  5
125
  8
0
 10
1428.0
 20
805.0
 30
0.0
 70
0
  0
VERTEX
  5
126
  8
0
 10
1430.0
 20
807.0
 30
0.0
 70
0
  0
VERTEX
  5
127
  8
0
 10
1430.0
 20
808.0
 30
0.0
 70
0
  0
VERTEX
  5
128
  8
0
 10
1431.0
 20
809.0
 30
0.0
 70
0
  0
VERTEX
  5
129
  8
0
 10
1431.0
 20
810.0
 30
0.0
 70
0
  0
VERTEX
  5
12A
  8
0
 10
1432.0
 20
811.0
 30
0.0
 70
0
  0
VERTEX
  5
12B
  8
0
 10
1432.0
 20
812.0
 30
0.0
 70
0
  0
VERTEX
  5
12C
  8
0
 10
1434.0
 20
814.0
 30
0.0
 70
0
  0
VERTEX
  5
12D
  8
0
 10
1434.0
 20
815.0
 30
0.0
 70
0
  0
VERTEX
  5
12E
  8
0
 10
1435.0
 20
816.0
 30
0.0
 70
0
  0
VERTEX
  5
12F
  8
0
 10
1435.0
 20
817.0
 30
0.0
 70
0
  0
VERTEX
  5
130
  8
0
 10
1437.0
 20
819.0
 30
0.0
 70
0
  0
VERTEX
  5
131
  8
0
 10
1437.0
 20
820.0
 30
0.0
 70
0
  0
VERTEX
  5
132
  8
0
 10
1439.0
 20
822.0
 30
0.0
 70
0
  0
VERTEX
  5
133
  8
0
 10
1439.0
 20
823.0
 30
0.0
 70
0
  0
VERTEX
  5
134
  8
0
 10
1440.0
 20
824.0
 30
0.0
 70
0
  0
VERTEX
  5
135
  8
0
 10
1440.0
 20
825.0
 30
0.0
 70
0
  0
VERTEX
  5
136
  8
0
 10
1442.0
 20
827.0
 30
0.0
 70
0
  0
VERTEX
  5
137
  8
0
 10
1442.0
 20
828.0
 30
0.0
 70
0
  0
VERTEX
  5
138
  8
0
 10
1444.0
 20
830.0
 30
0.0
 70
0
  0
VERTEX
  5
139
  8
0
 10
1444.0
 20
831.0
 30
0.0
 70
0
  0
VERTEX
  5
13A
  8
0
 10
1446.0
 20
833.0
 30
0.0
 70
0
  0
VERTEX
  5
13B
  8
0
 10
1446.0
 20
834.0
 30
0.0
 70
0
  0
VERTEX
  5
13C
  8
0
 10
1448.0
 20
836.0
 30
0.0
 70
0
  0
VERTEX
  5
13D
  8
0
 10
1448.0
 20
837.0
 30
0.0
 70
0
  0
VERTEX
  5
13E
  8
0
 10
1451.0
 20
840.0
 30
0.0
 70
0
  0
VERTEX
  5
13F
  8
0
 10
1451.0
 20
841.0
 30
0.0
 70
0
  0
VERTEX
  5
140
  8
0
 10
1453.0
 20
843.0
 30
0.0
 70
0
  0
VERTEX
  5
141
  8
0
 10
1453.0
 20
844.0
 30
0.0
 70
0
  0
VERTEX
  5
142
  8
0
 10
1455.0
 20
846.0
 30
0.0
 70
0
  0
VERTEX
  5
143
  8
0
 10
1455.0
 20
847.0
 30
0.0
 70
0
  0
VERTEX
  5
144
  8
0
 10
1458.0
 20
850.0
 30
0.0
 70
0
  0
VERTEX
  5
145
  8
0
 10
1458.0
 20
851.0
 30
0.0
 70
0
  0
VERTEX
  5
146
  8
0
 10
1461.0
 20
854.0
 30
0.0
 70
0
  0
VERTEX
  5
147
  8
0
 10
1461.0
 20
855.0
 30
0.0
 70
0
  0
VERTEX
  5
148
  8
0
 10
1464.0
 20
858.0
 30
0.0
 70
0
  0
VERTEX
  5
149
  8
0
 10
1464.0
 20
859.0
 30
0.0
 70
0
  0
VERTEX
  5
14A
  8
0
 10
1468.0
 20
863.0
 30
0.0
 70
0
  0
VERTEX
  5
14B
  8
0
 10
1468.0
 20
864.0
 30
0.0
 70
0
  0
VERTEX
  5
14C
  8
0
 10
1471.0
 20
867.0
 30
0.0
 70
0
  0
VERTEX
  5
14D
  8
0
 10
1471.0
 20
868.0
 30
0.0
 70
0
  0
VERTEX
  5
14E
  8
0
 10
1475.0
 20
872.0
 30
0.0
 70
0
  0
VERTEX
  5
14F
  8
0
 10
1475.0
 20
873.0
 30
0.0
 70
0
  0
VERTEX
  5
150
  8
0
 10
1480.0
 20
878.0
 30
0.0
 70
0
  0
VERTEX
  5
151
  8
0
 10
1480.0
 20
879.0
 30
0.0
 70
0
  0
VERTEX
  5
152
  8
0
 10
1486.0
 20
885.0
 30
0.0
 70
0
  0
VERTEX
  5
153
  8
0
 10
1486.0
 20
886.0
 30
0.0
 70
0
  0
VERTEX
  5
154
  8
0
 10
1492.0
 20
892.0
 30
0.0
 70
0
  0
VERTEX
  5
155
  8
0
 10
1492.0
 20
893.0
 30
0.0
 70
0
  0
VERTEX
  5
156
  8
0
 10
1502.0
 20
903.0
 30
0.0
 70
0
  0
VERTEX
  5
157
  8
0
 10
1502.0
 20
904.0
 30
0.0
 70
0
  0
VERTEX
  5
158
  8
0
 10
1521.0
 20
923.0
 30
0.0
 70
0
  0
VERTEX
  5
159
  8
0
 10
1521.0
 20
924.0
 30
0.0
 70
0
  0
VERTEX
  5
15A
  8
0
 10
1530.0
 20
933.0
 30
0.0
 70
0
  0
VERTEX
  5
15B
  8
0
 10
1531.0
 20
933.0
 30
0.0
 70
0
  0
VERTEX
  5
15C
  8
0
 10
1552.0
 20
954.0
 30
0.0
 70
0
  0
VERTEX
  5
15D
  8
0
 10
1553.0
 20
954.0
 30
0.0
 70
0
  0
VERTEX
  5
15E
  8
0
 10
1563.0
 20
964.0
 30
0.0
 70
0
  0
VERTEX
  5
15F
  8
0
 10
1564.0
 20
964.0
 30
0.0
 70
0
  0
VERTEX
  5
160
  8
0
 10
1572.0
 20
972.0
 30
0.0
 70
0
  0
VERTEX
  5
161
  8
0
 10
1573.0
 20
972.0
 30
0.0
 70
0
  0
VERTEX
  5
162
  8
0
 10
1580.0
 20
979.0
 30
0.0
 70
0
  0
VERTEX
  5
163
  8
0
 10
1581.0
 20
979.0
 30
0.0
 70
0
  0
VERTEX
  5
164
  8
0
 10
1587.0
 20
985.0
 30
0.0
 70
0
  0
VERTEX
  5
165
  8
0
 10
1588.0
 20
985.0
 30
0.0
 70
0
  0
VERTEX
  5
166
  8
0
 10
1594.0
 20
991.0
 30
0.0
 70
0
  0
VERTEX
  5
167
  8
0
 10
1595.0
 20
991.0
 30
0.0
 70
0
  0
VERTEX
  5
168
  8
0
 10
1600.0
 20
996.0
 30
0.0
 70
0
  0
VERTEX
  5
169
  8
0
 10
1601.0
 20
996.0
 30
0.0
 70
0
  0
VERTEX
  5
16A
  8
0
 10
1606.0
 20
1001.0
 30
0.0
 70
0
  0
VERTEX
  5
16B
  8
0
 10
1607.0
 20
1001.0
 30
0.0
 70
0
  0
VERTEX
  5
16C
  8
0
 10
1611.0
 20
1005.0
 30
0.0
 70
0
  0
VERTEX
  5
16D
  8
0
 10
1612.0
 20
1005.0
 30
0.0
 70
0
  0
VERTEX
  5
16E
  8
0
 10
1617.0
 20
1010.0
 30
0.0
 70
0
  0
VERTEX
  5
16F
  8
0
 10
1618.0
 20
1010.0
 30
0.0
 70
0
  0
VERTEX
  5
170
  8
0
 10
1622.0
 20
1014.0
 30
0.0
 70
0
  0
VERTEX
  5
171
  8
0
 10
1623.0
 20
1014.0
 30
0.0
 70
0
  0
VERTEX
  5
172
  8
0
 10
1627.0
 20
1018.0
 30
0.0
 70
0
  0
VERTEX
  5
173
  8
0
 10
1628.0
 20
1018.0
 30
0.0
 70
0
  0
VERTEX
  5
174
  8
0
 10
1632.0
 20
1022.0
 30
0.0
 70
0
  0
VERTEX
  5
175
  8
0
 10
1633.0
 20
1022.0
 30
0.0
 70
0
  0
VERTEX
  5
176
  8
0
 10
1636.0
 20
1025.0
 30
0.0
 70
0
  0
VERTEX
  5
177
  8
0
 10
1637.0
 20
1025.0
 30
0.0
 70
0
  0
VERTEX
  5
178
  8
0
 10
1641.0
 20
1029.0
 30
0.0
 70
0
  0
VERTEX
  5
179
  8
0
 10
1642.0
 20
1029.0
 30
0.0
 70
0
  0
VERTEX
  5
17A
  8
0
 10
1645.0
 20
1032.0
 30
0.0
 70
0
  0
VERTEX
  5
17B
  8
0
 10
1646.0
 20
1032.0
 30
0.0
 70
0
  0
VERTEX
  5
17C
  8
0
 10
1649.0
 20
1035.0
 30
0.0
 70
0
  0
VERTEX
  5
17D
  8
0
 10
1650.0
 20
1035.0
 30
0.0
 70
0
  0
VERTEX
  5
17E
  8
0
 10
1654.0
 20
1039.0
 30
0.0
 70
0
  0
VERTEX
  5
17F
  8
0
 10
1655.0
 20
1039.0
 30
0.0
 70
0
  0
VERTEX
  5
180
  8
0
 10
1658.0
 20
1042.0
 30
0.0
 70
0
  0
VERTEX
  5
181
  8
0
 10
1659.0
 20
1042.0
 30
0.0
 70
0
  0
VERTEX
  5
182
  8
0
 10
1662.0
 20
1045.0
 30
0.0
 70
0
  0
VERTEX
  5
183
  8
0
 10
1663.0
 20
1045.0
 30
0.0
 70
0
  0
VERTEX
  5
184
  8
0
 10
1666.0
 20
1048.0
 30
0.0
 70
0
  0
VERTEX
  5
185
  8
0
 10
1666.0
 20
668.0
 30
0.0
 70
0
  0
VERTEX
  5
186
  8
0
 10
1665.0
 20
667.0
 30
0.0
 70
0
  0
VERTEX
  5
187
  8
0
 10
1666.0
 20
666.0
 30
0.0
 70
0
  0
VERTEX
  5
188
  8
0
 10
1666.0
 20
286.0
 30
0.0
 70
0
  0
SEQEND
  5
2E
  8
0
  0
ENDSEC
  0
EOF
